<svg xmlns="http://www.w3.org/2000/svg" xmlns:xlink="http://www.w3.org/1999/xlink" viewBox="0 0 376 376"><defs><style>.cls-1{fill:none;}.cls-18,.cls-2,.cls-20,.cls-4{isolation:isolate;}.cls-3{clip-path:url(#clip-path);}.cls-4{fill-rule:evenodd;opacity:0.68;fill:url(#linear-gradient);}.cls-5{fill:url(#linear-gradient-2);}.cls-10,.cls-18,.cls-20,.cls-6{opacity:0.5;}.cls-6{fill:url(#linear-gradient-3);}.cls-23,.cls-54,.cls-55,.cls-7{opacity:0.4;}.cls-7{fill:url(#linear-gradient-4);}.cls-8{opacity:0.3;fill:url(#linear-gradient-5);}.cls-9{mix-blend-mode:darken;opacity:0.6;fill:url(#linear-gradient-6);}.cls-10{mix-blend-mode:multiply;fill:url(#linear-gradient-7);}.cls-11{clip-path:url(#clip-path-2);}.cls-12{fill:url(#linear-gradient-8);}.cls-13{clip-path:url(#clip-path-3);}.cls-14{fill:url(#linear-gradient-9);}.cls-15{fill:url(#linear-gradient-10);}.cls-16{fill:url(#linear-gradient-11);}.cls-17{fill:url(#linear-gradient-12);}.cls-18{fill:url(#linear-gradient-13);}.cls-19{fill:url(#linear-gradient-14);}.cls-20{fill:url(#linear-gradient-15);}.cls-21{fill:url(#linear-gradient-16);}.cls-22{fill:url(#linear-gradient-17);}.cls-23{fill:url(#linear-gradient-18);}.cls-24{fill:url(#linear-gradient-19);}.cls-25,.cls-51{opacity:0.39;}.cls-25{fill:url(#linear-gradient-20);}.cls-26{clip-path:url(#clip-path-4);}.cls-27{fill:#a8a8a8;}.cls-28{fill:#adadad;}.cls-29{fill:#b3b3b3;}.cls-30{fill:#b8b8b8;}.cls-31{fill:#bdbdbd;}.cls-32{fill:#c2c2c2;}.cls-33{fill:#c7c7c7;}.cls-34{fill:#ccc;}.cls-35{fill:#d1d1d1;}.cls-36{fill:#d6d6d6;}.cls-37{fill:#dbdbdb;}.cls-38{fill:#e0e0e0;}.cls-39{fill:#e6e6e6;}.cls-40{fill:#ebebeb;}.cls-41{fill:#f0f0f0;}.cls-42{fill:#f5f5f5;}.cls-43{fill:#fafafa;}.cls-44{fill:#fff;}.cls-45{fill:#a3a3a3;}.cls-46{fill:#9e9e9e;}.cls-47{fill:#999;}.cls-48{fill:#949494;}.cls-49{fill:#8f8f8f;}.cls-50{fill:url(#linear-gradient-21);}.cls-51{fill:url(#linear-gradient-22);}.cls-52{clip-path:url(#clip-path-5);}.cls-53{opacity:0.64;fill:url(#linear-gradient-23);}.cls-54{fill:url(#linear-gradient-24);}.cls-55{fill:url(#linear-gradient-25);}</style><clipPath id="clip-path"><rect class="cls-1" y="-500" width="376" height="376"/></clipPath><linearGradient id="linear-gradient" x1="-410.63" y1="4.13" x2="-410.47" y2="3.56" gradientTransform="matrix(1384.59, -422.11, -166.13, -544.94, 569238.45, -171308.73)" gradientUnits="userSpaceOnUse"><stop offset="0" stop-color="#4489b6"/><stop offset="0.42" stop-color="#959ba5"/><stop offset="0.82" stop-color="#dcab96"/><stop offset="1" stop-color="#f7b190"/></linearGradient><linearGradient id="linear-gradient-2" x1="143.13" y1="89.41" x2="492.72" y2="-167.87" gradientTransform="matrix(0.88, 0.47, -0.93, 0.64, 255.43, -399.19)" gradientUnits="userSpaceOnUse"><stop offset="0" stop-color="#8aabd7" stop-opacity="0"/><stop offset="0.15" stop-color="#adabbd" stop-opacity="0.12"/><stop offset="0.34" stop-color="#d1aca4" stop-opacity="0.24"/><stop offset="0.52" stop-color="#eaac91" stop-opacity="0.33"/><stop offset="0.7" stop-color="#faac86" stop-opacity="0.38"/><stop offset="0.85" stop-color="#ffac82" stop-opacity="0.4"/></linearGradient><linearGradient id="linear-gradient-3" x1="427.87" y1="-309.47" x2="293.82" y2="-265.28" gradientTransform="translate(104.6 19.7) rotate(-9.07)" gradientUnits="userSpaceOnUse"><stop offset="0" stop-color="#ff5146" stop-opacity="0.9"/><stop offset="1" stop-color="#ffecd2" stop-opacity="0"/></linearGradient><linearGradient id="linear-gradient-4" x1="-2158.93" y1="-240.37" x2="-2004.59" y2="-406.09" gradientTransform="matrix(0.98, -0.2, -0.72, -0.87, 1633.41, -883.73)" gradientUnits="userSpaceOnUse"><stop offset="0" stop-color="#ff5146" stop-opacity="0"/><stop offset="0.21" stop-color="#ff5348" stop-opacity="0.01"/><stop offset="0.33" stop-color="#ff594d" stop-opacity="0.04"/><stop offset="0.43" stop-color="#ff6457" stop-opacity="0.1"/><stop offset="0.52" stop-color="#ff7365" stop-opacity="0.17"/><stop offset="0.6" stop-color="#ff8676" stop-opacity="0.28"/><stop offset="0.67" stop-color="#ff9e8c" stop-opacity="0.4"/><stop offset="0.74" stop-color="#ffbba6" stop-opacity="0.55"/><stop offset="0.8" stop-color="#ffdbc3" stop-opacity="0.71"/><stop offset="0.83" stop-color="#ffecd2" stop-opacity="0.8"/></linearGradient><linearGradient id="linear-gradient-5" x1="-1440.84" y1="-292.16" x2="-1179.37" y2="-564.66" gradientTransform="matrix(0.71, -0.71, -1.08, -0.34, 998.53, -1322.09)" gradientUnits="userSpaceOnUse"><stop offset="0" stop-color="#ff5146" stop-opacity="0"/><stop offset="0.21" stop-color="#ff5348" stop-opacity="0.01"/><stop offset="0.33" stop-color="#ff594d" stop-opacity="0.04"/><stop offset="0.42" stop-color="#ff6457" stop-opacity="0.1"/><stop offset="0.51" stop-color="#ff7365" stop-opacity="0.17"/><stop offset="0.58" stop-color="#ff8676" stop-opacity="0.28"/><stop offset="0.66" stop-color="#ff9e8c" stop-opacity="0.4"/><stop offset="0.72" stop-color="#ffbba6" stop-opacity="0.55"/><stop offset="0.78" stop-color="#ffdbc3" stop-opacity="0.71"/><stop offset="0.81" stop-color="#ffecd2" stop-opacity="0.8"/></linearGradient><linearGradient id="linear-gradient-6" x1="992.49" y1="-622.14" x2="852.6" y2="-603.46" gradientTransform="matrix(-0.97, -0.23, -0.23, 0.97, 1040.1, 502.65)" gradientUnits="userSpaceOnUse"><stop offset="0" stop-color="#8aabd7"/><stop offset="0.1" stop-color="#8aabd7" stop-opacity="0.84"/><stop offset="0.27" stop-color="#8aabd7" stop-opacity="0.59"/><stop offset="0.44" stop-color="#8aabd7" stop-opacity="0.38"/><stop offset="0.6" stop-color="#8aabd7" stop-opacity="0.21"/><stop offset="0.75" stop-color="#8aabd7" stop-opacity="0.1"/><stop offset="0.89" stop-color="#8aabd7" stop-opacity="0.02"/><stop offset="1" stop-color="#8aabd7" stop-opacity="0"/></linearGradient><linearGradient id="linear-gradient-7" x1="-115.38" y1="-161.54" x2="121.59" y2="-127.86" gradientTransform="translate(65.13 -148.34) rotate(-23.68)" gradientUnits="userSpaceOnUse"><stop offset="0" stop-color="#ff5146" stop-opacity="0"/><stop offset="0.25" stop-color="#ff5347" stop-opacity="0.01"/><stop offset="0.39" stop-color="#ff584c" stop-opacity="0.04"/><stop offset="0.51" stop-color="#ff6255" stop-opacity="0.1"/><stop offset="0.6" stop-color="#ff6f61" stop-opacity="0.17"/><stop offset="0.7" stop-color="#ff8071" stop-opacity="0.27"/><stop offset="0.78" stop-color="#ff9584" stop-opacity="0.4"/><stop offset="0.86" stop-color="#ffaf9b" stop-opacity="0.54"/><stop offset="0.93" stop-color="#ffcbb4" stop-opacity="0.71"/><stop offset="1" stop-color="#ffebd1" stop-opacity="0.9"/><stop offset="1" stop-color="#ffecd2" stop-opacity="0.9"/></linearGradient><clipPath id="clip-path-2"><rect class="cls-1" x="556.33" y="-499.52" width="376" height="376"/></clipPath><linearGradient id="linear-gradient-8" x1="735.03" y1="-161.73" x2="393.09" y2="467.79" gradientTransform="matrix(0.94, -0.34, 0.34, 0.94, 64.38, 24.76)" gradientUnits="userSpaceOnUse"><stop offset="0.04" stop-color="#e3fff0" stop-opacity="0"/><stop offset="0.14" stop-color="#8dabac" stop-opacity="0.5"/><stop offset="0.25" stop-color="#5d7c85" stop-opacity="0.92"/><stop offset="0.34" stop-color="#375767" stop-opacity="0.96"/><stop offset="0.42" stop-color="#1c3c51" stop-opacity="0.98"/><stop offset="0.5" stop-color="#0b2c44"/><stop offset="0.58" stop-color="#062740"/></linearGradient><clipPath id="clip-path-3"><rect class="cls-1" width="376" height="376"/></clipPath><linearGradient id="linear-gradient-9" x1="356.72" y1="80.81" x2="-122.78" y2="385.44" gradientUnits="userSpaceOnUse"><stop offset="0" stop-color="#67b1b4"/><stop offset="0.12" stop-color="#5799a3"/><stop offset="0.29" stop-color="#457d90"/><stop offset="0.47" stop-color="#386a82"/><stop offset="0.64" stop-color="#315e7a"/><stop offset="0.82" stop-color="#2e5a77"/></linearGradient><linearGradient id="linear-gradient-10" x1="69.14" y1="-886.64" x2="298.69" y2="-678.63" gradientTransform="matrix(1, 0, 0, -1, 0, -622)" gradientUnits="userSpaceOnUse"><stop offset="0" stop-color="#007180"/><stop offset="0.04" stop-color="#35909b"/><stop offset="0.08" stop-color="#6db0b7"/><stop offset="0.13" stop-color="#9ac9cd"/><stop offset="0.16" stop-color="#badcdd"/><stop offset="0.19" stop-color="#cde7e7"/><stop offset="0.21" stop-color="#d4ebea"/><stop offset="0.57" stop-color="#d4ebea"/><stop offset="0.63" stop-color="#d4ebea"/><stop offset="0.87" stop-color="#96d1d3"/></linearGradient><linearGradient id="linear-gradient-11" x1="174.07" y1="99.18" x2="163.13" y2="244.58" gradientUnits="userSpaceOnUse"><stop offset="0" stop-color="#67b1b4"/><stop offset="0.85" stop-color="#2e5a77"/></linearGradient><linearGradient id="linear-gradient-12" x1="89.16" y1="220.01" x2="204.74" y2="351.47" gradientUnits="userSpaceOnUse"><stop offset="0" stop-color="#eef7f9"/><stop offset="0.57" stop-color="#ddecef"/><stop offset="0.64" stop-color="#c8dee2"/><stop offset="0.72" stop-color="#aacad0"/><stop offset="0.8" stop-color="#84b1b8"/><stop offset="0.88" stop-color="#55939c"/><stop offset="0.96" stop-color="#1f6f7b"/><stop offset="1" stop-color="#005b68"/></linearGradient><linearGradient id="linear-gradient-13" x1="90.57" y1="259.21" x2="167.57" y2="259.21" gradientUnits="userSpaceOnUse"><stop offset="0" stop-color="#005b71"/><stop offset="0.18" stop-color="#317f8f"/><stop offset="0.37" stop-color="#5fa0ab"/><stop offset="0.55" stop-color="#82bac1"/><stop offset="0.72" stop-color="#9ccdd1"/><stop offset="0.88" stop-color="#acd8db"/><stop offset="1" stop-color="#b1dcde"/></linearGradient><linearGradient id="linear-gradient-14" x1="146.34" y1="169.72" x2="261.93" y2="301.18" gradientUnits="userSpaceOnUse"><stop offset="0.49" stop-color="#eaf4f6"/><stop offset="0.57" stop-color="#ddecef"/><stop offset="0.64" stop-color="#c8dee2"/><stop offset="0.72" stop-color="#aacad0"/><stop offset="0.8" stop-color="#84b1b8"/><stop offset="0.88" stop-color="#55939c"/><stop offset="0.96" stop-color="#1f6f7b"/><stop offset="1" stop-color="#005b68"/></linearGradient><linearGradient id="linear-gradient-15" x1="-842.93" y1="259.21" x2="-735.42" y2="259.21" gradientTransform="matrix(-1, 0, 0, 1, -567.85, 0)" xlink:href="#linear-gradient-13"/><linearGradient id="linear-gradient-16" x1="155.99" y1="250.38" x2="36.77" y2="275.69" gradientUnits="userSpaceOnUse"><stop offset="0" stop-color="#b7dfdf"/><stop offset="0.5" stop-color="#67b1b4"/><stop offset="1" stop-color="#2e5a77"/></linearGradient><linearGradient id="linear-gradient-17" x1="208.08" y1="273.5" x2="198.35" y2="324.35" xlink:href="#linear-gradient-16"/><linearGradient id="linear-gradient-18" x1="117.25" y1="312.6" x2="332.57" y2="173.46" gradientUnits="userSpaceOnUse"><stop offset="0" stop-color="#969696"/><stop offset="1"/></linearGradient><linearGradient id="linear-gradient-19" x1="92.9" y1="213.77" x2="230.3" y2="160.45" xlink:href="#linear-gradient-18"/><linearGradient id="linear-gradient-20" x1="122.89" y1="204.13" x2="128.54" y2="238.01" gradientUnits="userSpaceOnUse"><stop offset="0" stop-color="#969696" stop-opacity="0"/><stop offset="1"/></linearGradient><clipPath id="clip-path-4"><path class="cls-1" d="M282.87,255.18l-121.23.67a6.53,6.53,0,0,1-3-.7c-1.87-.91-3.78-2.77-5.71-5.82-6.78-10.76-6.94-26.78-7.08-42.28,0-3.91-.08-7.62-.21-11.26-.76-19.83-4.33-35-9.81-41.55a11.68,11.68,0,0,0-3.79-3.1l121.24-.67a11.53,11.53,0,0,1,3.78,3.1c5.48,6.58,9.06,21.72,9.81,41.54.14,3.65.18,7.35.21,11.27.15,15.5.31,31.52,7.09,42.27,1.93,3.06,3.83,4.92,5.71,5.83A6.52,6.52,0,0,0,282.87,255.18Z"/></clipPath><linearGradient id="linear-gradient-21" x1="177.65" y1="258.68" x2="299.16" y2="187" xlink:href="#linear-gradient-18"/><linearGradient id="linear-gradient-22" x1="188.89" y1="227.64" x2="192.69" y2="258.86" xlink:href="#linear-gradient-20"/><clipPath id="clip-path-5"><path class="cls-1" d="M198.51,223.77l121.24-.68a11.87,11.87,0,0,1,5.27,1.24,18,18,0,0,1,5.29,4.1c8.71,9.46,14.15,30.06,13.56,51.28l-121.24.67c.59-21.22-4.85-41.82-13.56-51.28a18,18,0,0,0-5.29-4.1A11.86,11.86,0,0,0,198.51,223.77Z"/></clipPath><linearGradient id="linear-gradient-23" x1="2375.57" y1="-2996.38" x2="2283.1" y2="-2998.19" gradientTransform="matrix(0.93, -0.37, -0.37, -0.93, -3005.29, -1907.37)" gradientUnits="userSpaceOnUse"><stop offset="0" stop-color="#fff" stop-opacity="0.5"/><stop offset="0.02" stop-color="#fff" stop-opacity="0.47"/><stop offset="0.16" stop-color="#fff" stop-opacity="0.33"/><stop offset="0.3" stop-color="#fff" stop-opacity="0.21"/><stop offset="0.45" stop-color="#fff" stop-opacity="0.12"/><stop offset="0.61" stop-color="#fff" stop-opacity="0.05"/><stop offset="0.78" stop-color="#fff" stop-opacity="0.01"/><stop offset="1" stop-color="#fff" stop-opacity="0"/></linearGradient><linearGradient id="linear-gradient-24" x1="-3240.17" y1="5918.33" x2="-3411.86" y2="5950.04" gradientTransform="matrix(0.9, 0.39, 0.68, -1.57, -881.78, 10928.34)" xlink:href="#linear-gradient-23"/><linearGradient id="linear-gradient-25" x1="-4336.96" y1="6054.71" x2="-4508.65" y2="6086.41" gradientTransform="matrix(0.32, -0.93, -1.62, -0.56, 11260.92, -604.47)" xlink:href="#linear-gradient-23"/></defs><g class="cls-2"><g id="Layer_1" data-name="Layer 1"><g class="cls-3"><path class="cls-4" d="M-75.95,4l-46.46-152.38q22.17,17,47.4-.07c25.23-17.11.54-44.79,28.78-51.57S-95.79-55.71-59-65.49-2-79.94,33.48-91.07c29.54-9.26,23.44-40.6,86.37-44.35,38.43-2.28,72.38-50.65,100.14-50.46,18.38.13,32.85,24,55.3,17.21,25.3-7.71,31.85-53.3,58.41-61.91,24.87-8.06,49.59,25.64,68.86,32.69l9.88,156.47Z"/><polygon class="cls-5" points="618.69 113.3 255.24 35.73 267.74 -664.27 619.07 -604.8 618.69 113.3"/><polygon class="cls-6" points="514.23 -8.48 400 34.29 149.29 -546.79 319.29 -556.64 514.23 -8.48"/><polygon class="cls-7" points="41.54 -544.84 -181.42 -571.36 -523.66 121.16 -294.73 74.27 41.54 -544.84"/><polygon class="cls-8" points="585.23 -694.8 309.23 -570.46 242.92 233.79 408.49 68.88 585.23 -694.8"/><polygon class="cls-9" points="150.76 -27.73 261.58 23.24 553.89 -538.06 385.06 -560.25 150.76 -27.73"/><polygon class="cls-10" points="82.65 49.54 -131.35 143.4 -277.95 -587.87 -37.34 -611.54 82.65 49.54"/></g><g class="cls-11"><polygon class="cls-12" points="133.83 -402.01 1385.46 -36.73 458.47 296.9 195.65 393.48 -53.04 -283.27 133.83 -402.01"/></g><g class="cls-13"><rect class="cls-14" x="-4.59" y="-4.59" width="385.18" height="385.18"/><rect class="cls-15" x="58.87" y="100.97" width="217.49" height="148.87" rx="6.17"/><rect class="cls-16" x="69.79" y="114.6" width="196.81" height="125.15"/><polygon class="cls-17" points="167.57 248.71 167.57 278.16 102.14 278 102.25 278 61.22 248.71 167.57 248.71"/><polygon class="cls-18" points="167.57 253.06 167.57 265.36 110.17 264.91 90.57 253.06 167.57 253.06"/><polygon class="cls-19" points="167.57 248.71 167.57 278.16 315.53 278 315.65 278 274.62 248.71 167.57 248.71"/><polygon class="cls-20" points="167.57 253.06 167.57 265.36 275.08 264.91 262.92 253.06 167.57 253.06"/><path class="cls-21" d="M103.6,282.09a4.18,4.18,0,0,1-6,1.31L61,256.38a4.12,4.12,0,0,1-1.54-3l.1-2.95A2.3,2.3,0,0,1,63,248.68l39.29,27.81A4.3,4.3,0,0,1,103.6,282.09Z"/><path class="cls-22" d="M316.75,280.69v.07a3.66,3.66,0,0,1-3.69,3.63H100.34a3.66,3.66,0,0,1-3.69-3.63v-.07A3.57,3.57,0,0,1,97.87,278a3.66,3.66,0,0,1,2.47-.94H313.06a3.64,3.64,0,0,1,2.47.94A3.57,3.57,0,0,1,316.75,280.69Z"/><polygon class="cls-23" points="98.11 239.75 222.63 280.38 306.27 275.67 198.51 237.75 158.23 241.61 148.8 239.65 98.11 239.75"/><path class="cls-24" d="M98.11,239.75s10.12-89.88,34-88.61,16.47,52.79,18.54,88.53Z"/><path class="cls-25" d="M98.11,239.75s10.12-89.88,34-88.61,16.47,52.79,18.54,88.53Z"/><g class="cls-2"><g class="cls-26"><g class="cls-2"><path class="cls-27" d="M132.06,151.14l121.24-.67.24.11-121.24.68-.24-.12"/><path class="cls-28" d="M132.3,151.26l121.24-.68.51.3-121.24.67-.51-.29"/><path class="cls-29" d="M132.81,151.55l121.24-.67c.17.1.33.2.5.32l-121.24.67-.5-.32"/><path class="cls-30" d="M133.31,151.87l121.24-.67.48.35-121.24.67-.48-.35"/><path class="cls-31" d="M133.79,152.22,255,151.55l.47.39-121.24.67-.47-.39"/><path class="cls-32" d="M134.26,152.61l121.24-.67c.15.13.31.27.46.42L134.72,153c-.15-.15-.31-.29-.46-.42"/><path class="cls-33" d="M134.72,153,256,152.36c.16.15.31.3.46.46l-121.23.68-.47-.47"/><path class="cls-34" d="M135.19,153.5l121.23-.68.47.52L135.65,154c-.15-.18-.31-.35-.46-.51"/><path class="cls-35" d="M135.65,154l121.24-.67.19.23c.09.1.18.22.27.33l-121.23.67-.27-.33-.2-.23"/><path class="cls-36" d="M136.12,154.57l121.23-.67.47.61-121.24.68c-.15-.22-.31-.42-.46-.62"/><path class="cls-37" d="M136.58,155.19l121.24-.68c.16.24.33.48.49.73l-121.23.67c-.17-.25-.33-.49-.5-.72"/><path class="cls-38" d="M137.08,155.91l121.23-.67c.18.26.35.54.52.82l-121.24.67c-.17-.28-.34-.56-.51-.82"/><path class="cls-39" d="M137.59,156.73l121.24-.67c.19.31.37.63.55,1l-121.24.68c-.18-.34-.36-.66-.55-1"/><path class="cls-40" d="M138.14,157.7,259.38,157c.21.38.41.78.61,1.19l-121.24.67c-.2-.41-.4-.8-.61-1.18"/><path class="cls-41" d="M138.75,158.88,260,158.21c.22.46.44.93.65,1.42l-121.23.68c-.22-.5-.43-1-.66-1.43"/><path class="cls-42" d="M139.41,160.31l121.23-.68c.24.55.48,1.13.7,1.72L140.11,162c-.23-.59-.46-1.16-.7-1.71"/><path class="cls-43" d="M140.11,162l121.23-.67c.25.65.5,1.33.73,2l-121.24.67c-.23-.7-.47-1.38-.72-2"/><path class="cls-44" d="M140.83,164.05l121.24-.67c.26.76.5,1.55.74,2.37l-121.24.67c-.23-.81-.48-1.61-.74-2.37"/><path class="cls-44" d="M141.57,166.42l121.24-.67c.26.9.51,1.84.75,2.81l-121.23.67c-.24-1-.49-1.9-.76-2.81"/><path class="cls-44" d="M142.33,169.23l121.23-.67c.3,1.19.57,2.42.83,3.7l-121.24.68c-.26-1.29-.53-2.52-.82-3.71"/><path class="cls-44" d="M143.15,172.94l121.24-.68a134.54,134.54,0,0,1,2.2,17.15l-121.24.67a132.6,132.6,0,0,0-2.2-17.14"/><path class="cls-44" d="M145.35,190.08l121.24-.67c.12,1.8.22,3.64.3,5.53l-121.24.68c-.07-1.89-.17-3.74-.3-5.54"/><path class="cls-44" d="M145.65,195.62l121.24-.68v.17c.08,2,.12,3.93.15,5.94l-121.23.67c0-2-.08-4-.15-5.93v-.17"/><path class="cls-44" d="M145.81,201.72,267,201.05c0,1.74,0,3.51.06,5.33s0,3.57.07,5.36l-121.24.67c0-1.78-.05-3.58-.06-5.36s0-3.59-.06-5.33"/><path class="cls-44" d="M145.93,212.41l121.24-.67c0,2.26.08,4.51.17,6.74l-121.24.67c-.09-2.23-.14-4.48-.17-6.74"/><path class="cls-44" d="M146.1,219.15l121.24-.67c.06,1.64.15,3.27.26,4.88L146.36,224c-.11-1.62-.2-3.25-.26-4.89"/><path class="cls-44" d="M146.36,224l121.24-.68a87.77,87.77,0,0,0,1.45,11.48l-121.24.68A90,90,0,0,1,146.36,224"/><path class="cls-44" d="M147.81,235.52l121.24-.68c.17.85.35,1.69.56,2.52L148.37,238c-.2-.83-.39-1.66-.56-2.51"/><path class="cls-44" d="M148.37,238l121.24-.67c.16.67.34,1.33.53,2L148.9,240c-.19-.65-.36-1.31-.53-2"/><path class="cls-44" d="M148.9,240l121.24-.67c.17.61.36,1.2.56,1.79l-121.24.68c-.2-.59-.38-1.19-.56-1.8"/><path class="cls-43" d="M149.46,241.81l121.24-.68c.19.57.39,1.12.6,1.67l-121.24.67c-.21-.54-.41-1.1-.6-1.66"/><path class="cls-42" d="M150.06,243.47l121.24-.67c.19.52.4,1,.62,1.52L150.68,245c-.22-.5-.42-1-.62-1.53"/><path class="cls-41" d="M150.68,245l121.24-.68c.2.47.41.94.64,1.39l-121.24.67c-.22-.45-.44-.91-.64-1.38"/><path class="cls-40" d="M151.32,246.38l121.24-.67c.2.43.42.85.64,1.26L152,247.64c-.23-.41-.44-.83-.65-1.26"/><path class="cls-39" d="M152,247.64,273.2,247c.21.38.42.75.64,1.11l-121.24.67q-.33-.54-.63-1.11"/><path class="cls-38" d="M152.6,248.75l121.24-.67c.11.19.23.38.35.57l.33.51-121.24.67-.33-.5-.35-.58"/><path class="cls-37" d="M153.28,249.83l121.24-.67c.21.33.43.64.65.94l-121.24.68c-.22-.3-.43-.62-.65-.95"/><path class="cls-36" d="M153.93,250.78l121.24-.68c.19.28.39.54.59.79l-121.24.67-.59-.78"/><path class="cls-35" d="M154.52,251.56l121.24-.67.55.67-121.23.67c-.19-.21-.37-.43-.56-.67"/><path class="cls-34" d="M155.08,252.23l121.23-.67.53.58-121.24.67c-.17-.18-.35-.38-.52-.58"/><path class="cls-33" d="M155.6,252.81l121.24-.67.5.5-121.24.67-.5-.5"/><path class="cls-32" d="M156.1,253.31l121.24-.67.48.44-121.24.67-.48-.44"/><path class="cls-31" d="M156.58,253.75l121.24-.67.47.39-121.24.67-.47-.39"/><path class="cls-30" d="M157.05,254.14l121.24-.67.47.34-121.24.67-.47-.34"/><path class="cls-29" d="M157.52,254.48l121.24-.67c.15.11.31.21.46.3L158,254.78c-.15-.09-.31-.19-.46-.3"/><path class="cls-28" d="M158,254.78l121.24-.67.47.27-121.23.67-.48-.27"/><path class="cls-27" d="M158.46,255.05l121.23-.67.21.1.28.13L159,255.29l-.29-.14-.2-.1"/><path class="cls-45" d="M159,255.29l121.23-.68a5.38,5.38,0,0,0,.51.2l-121.24.67-.5-.19"/><path class="cls-46" d="M159.45,255.48l121.24-.67.54.17L160,255.65a5.6,5.6,0,0,1-.54-.17"/><path class="cls-47" d="M160,255.65,281.23,255a5.78,5.78,0,0,0,.57.12l-121.24.67-.57-.12"/><path class="cls-48" d="M160.56,255.77l121.24-.67c.23,0,.45.06.67.07l-121.23.67a5.23,5.23,0,0,1-.68-.07"/><path class="cls-49" d="M161.24,255.84l121.23-.67h.4l-121.23.67a2.64,2.64,0,0,1-.4,0"/></g><path class="cls-44" d="M157.78,181.53l53.36-.29c.37,3.19.43,3.77.69,6.84l-53.36.3q-.27-3.56-.69-6.85m1.43,33.17,53.36-.3c0,2,.1,4,.2,6l-53.36.3c-.12-2.92-.13-3.22-.2-6m-4.85-49.84,62.31-.35c.5,1.59,1,3.28,1.39,5.09l-62.3.35c-.64-2.53-.75-3-1.4-5.09M171,254.59l62.3-.34a9.54,9.54,0,0,0,.87.49,6.81,6.81,0,0,0,2.11.64l-62.31.35a8.3,8.3,0,0,1-3-1.14M147.72,152.73a10.51,10.51,0,0,0-2.41-1.66l76.83-.43a10.36,10.36,0,0,1,2.41,1.66l-36.38.2-18.18.1-12.12.07c-3.05,0-7.31,1.13-10.15.06m1.34,1.4,76.83-.43,0,0a20.25,20.25,0,0,1,2,2.89l-76.83.43a21.14,21.14,0,0,0-2-2.93m2.87,4.55,76.83-.43a38.76,38.76,0,0,1,1.71,4.06l-76.83.43a43,43,0,0,0-1.71-4.06m4.4,13.85,76.83-.43c.53,2.79.63,3.29,1.05,6l-76.83.43c-.48-3-.55-3.49-1-6m2.77,33.28,76.83-.43c0,.39,0,.78,0,1.17,0,1.63,0,3.27.05,4.91l-76.83.42-.06-6.07m2.11,30.4,76.83-.42a51,51,0,0,0,1.38,5.18l-76.83.43a51.15,51.15,0,0,1-1.38-5.19m2.2,7.47,76.83-.43a32,32,0,0,0,2.18,4.57l-76.83.42a35.05,35.05,0,0,1-2.18-4.56m3.44,6.57,76.83-.43a19.13,19.13,0,0,0,2.87,3.34l-76.83.43a17.91,17.91,0,0,1-2.87-3.34m60.61-98a10.29,10.29,0,0,0-2.41-1.66l16.74-.09a10.23,10.23,0,0,1,2.41,1.66l-16.74.09m1.34,1.41,16.74-.1,0,0a20.83,20.83,0,0,1,2,2.89l-16.74.09a20,20,0,0,0-2-2.89l0,0m2.88,4.55,16.74-.1c.84,1.83,1,2.16,1.71,4.06l-16.74.1a41.39,41.39,0,0,0-1.71-4.06m2.43,6.18,16.74-.1c.5,1.59,1,3.28,1.39,5.09l-16.74.09c-.42-1.8-.89-3.5-1.39-5.08m2,7.67,16.74-.1q.58,2.87,1.06,6l-16.74.09c-.48-3-.55-3.49-1.06-6m1.46,9,16.74-.09q.4,3.28.69,6.84l-16.74.09c-.19-2.36-.42-4.65-.69-6.84m1.31,24.28,16.74-.1c0,.39,0,.78,0,1.17,0,1.63,0,3.27.06,4.91l-16.74.09c0-1.64,0-3.27,0-4.91,0-.39,0-.78,0-1.16m.12,8.89,16.74-.1c0,2,.1,4,.2,6l-12.13.07-4.61,0c-.12-2.92-.13-3.23-.2-6m2,21.51,16.74-.09a49.3,49.3,0,0,0,1.38,5.19l-12.13.06-4.61,0a51.86,51.86,0,0,1-1.38-5.19m2.19,7.46,16.74-.09a34.31,34.31,0,0,0,2.18,4.57l-16.74.09a34.31,34.31,0,0,1-2.18-4.57m3.45,6.58,12.12-.07,4.62,0a18.06,18.06,0,0,0,2.87,3.34l-16.74.1a18.22,18.22,0,0,1-2.87-3.34m4.19,4.34,12.12-.07,4.61,0a7.79,7.79,0,0,0,3,1.13l-16.74.09a7.94,7.94,0,0,1-3-1.13m-89.15,1.7,121.23-.67a6.52,6.52,0,0,1-3-.7c-1.88-.91-3.78-2.77-5.71-5.83-6.78-10.75-6.94-26.77-7.09-42.27,0-3.92-.07-7.62-.21-11.27-.75-19.82-4.33-35-9.81-41.54a11.53,11.53,0,0,0-3.78-3.1l-121.24.67a11.68,11.68,0,0,1,3.79,3.1c5.48,6.58,9.05,21.72,9.81,41.55.13,3.64.17,7.35.21,11.26.14,15.5.3,31.52,7.08,42.28,1.93,3,3.84,4.91,5.71,5.82a6.53,6.53,0,0,0,3,.7"/><path class="cls-36" d="M147.72,152.73a10.51,10.51,0,0,0-2.41-1.66l76.83-.43a10.36,10.36,0,0,1,2.41,1.66l-36.38.2-18.18.1-12.12.07c-3.05,0-7.31,1.13-10.15.06"/><path class="cls-36" d="M227.46,152.28a10.29,10.29,0,0,0-2.41-1.66l16.74-.09a10.23,10.23,0,0,1,2.41,1.66l-16.74.09"/><path class="cls-36" d="M227.9,156.63a20.25,20.25,0,0,0-2-2.89l0,0-76.83.43a23.53,23.53,0,0,1,2,2.93l76.83-.43"/><path class="cls-36" d="M247.55,156.52a20.83,20.83,0,0,0-2-2.89l0,0-16.74.1,0,0a20,20,0,0,1,2,2.89l16.74-.09"/><path class="cls-36" d="M230.47,162.31a38.76,38.76,0,0,0-1.71-4.06l-76.83.43a41.45,41.45,0,0,1,1.71,4.06l76.83-.43"/><path class="cls-36" d="M250.13,162.2c-.79-2-.93-2.41-1.71-4.06l-16.74.1a41.39,41.39,0,0,1,1.71,4.06l16.74-.1"/><path class="cls-36" d="M218.06,169.6c-.43-1.81-.89-3.5-1.39-5.09l-62.31.35c.7,2.33.83,2.75,1.4,5.09l62.3-.35"/><path class="cls-36" d="M252.24,169.41c-.43-1.81-.89-3.5-1.39-5.09l-16.74.1c.5,1.58,1,3.28,1.39,5.08l16.74-.09"/><path class="cls-36" d="M234.21,178.12c-.48-3-.55-3.49-1.05-6l-76.83.43c.53,2.79.63,3.29,1,6l76.83-.43"/><path class="cls-36" d="M253.87,178q-.48-3.17-1.06-6l-16.74.1c.54,2.78.64,3.29,1.06,6l16.74-.09"/><path class="cls-36" d="M211.83,188.08c-.29-3.34-.34-3.94-.69-6.84l-53.36.29q.42,3.3.69,6.85l53.36-.3"/><path class="cls-36" d="M255,187.84q-.28-3.56-.69-6.84l-16.74.09c.27,2.19.5,4.48.69,6.84l16.74-.09"/><path class="cls-36" d="M239.42,241a51,51,0,0,1-1.38-5.18l-76.83.42a51.15,51.15,0,0,0,1.38,5.19l76.83-.43"/><path class="cls-36" d="M259.08,240.87a49.3,49.3,0,0,1-1.38-5.19l-16.74.09a51.86,51.86,0,0,0,1.38,5.19l16.74-.09"/><path class="cls-36" d="M242.42,247.82a32,32,0,0,1-2.18-4.57l-76.83.43a34.43,34.43,0,0,0,2.18,4.56l76.83-.42"/><path class="cls-36" d="M262.07,247.71a34.31,34.31,0,0,1-2.18-4.57l-12.12.07-4.62,0a34.31,34.31,0,0,0,2.18,4.57l16.74-.09"/><path class="cls-36" d="M246.55,253.16a17.91,17.91,0,0,1-2.87-3.34l-76.83.43a19.13,19.13,0,0,0,2.87,3.34l76.83-.43"/><path class="cls-36" d="M266.21,253.05a18.06,18.06,0,0,1-2.87-3.34l-12.13.07-4.61,0a18.69,18.69,0,0,0,2.87,3.34l16.74-.1"/><path class="cls-36" d="M236.32,255.38a6.81,6.81,0,0,1-2.11-.64,9.54,9.54,0,0,1-.87-.49l-62.3.34a7.86,7.86,0,0,0,3,1.14l62.31-.35"/><path class="cls-36" d="M270.5,255.19a8.22,8.22,0,0,1-3-1.13l-12.12.07-4.61,0a7.65,7.65,0,0,0,3,1.13l16.74-.09"/><path class="cls-36" d="M236,211.46c0-1.64,0-3.28-.05-4.91,0-.39,0-.78,0-1.17l-76.83.43c0,2,0,4.05.06,6.07l76.83-.42"/><path class="cls-36" d="M255.65,211.35c0-1.64,0-3.28-.06-4.91,0-.39,0-.78,0-1.17l-16.74.1c0,.38,0,.77,0,1.16,0,1.64,0,3.27,0,4.91l16.74-.09"/><path class="cls-36" d="M212.77,220.42c-.1-2-.16-4-.2-6l-53.36.3c.07,2.79.09,3.46.2,6l53.36-.3"/><path class="cls-36" d="M255.9,220.18c-.1-2-.16-4-.2-6l-16.74.1c.07,2.79.09,3.46.2,6l12.12-.07,4.62,0"/></g></g><path class="cls-50" d="M160.85,255.85a11.45,11.45,0,0,0,3.57-.36c2.93-.87,7-4.77,13.13-13.05,12.25-16.57,14.3-18.43,22-18.05s16.81,11.35,20.46,23.12l3.83,8.34Z"/><path class="cls-51" d="M160.85,255.85a11.45,11.45,0,0,0,3.57-.36c2.93-.87,7-4.77,13.13-13.05,12.25-16.57,14.3-18.43,22-18.05s16.81,11.35,20.46,23.12l3.83,8.34Z"/><g class="cls-2"><g class="cls-52"><g class="cls-2"><path class="cls-49" d="M198.51,223.77l121.24-.68.76,0-121.24.67c-.25,0-.51,0-.76,0"/><path class="cls-48" d="M199.27,223.79l121.24-.67a9.3,9.3,0,0,1,1.17.13l-121.24.67a11.63,11.63,0,0,0-1.17-.13"/><path class="cls-47" d="M200.44,223.92l121.24-.67c.34.06.68.13,1,.22l-121.24.67c-.34-.09-.69-.16-1-.22"/><path class="cls-46" d="M201.47,224.14l121.24-.67c.31.08.63.18.94.29l-121.24.67c-.31-.11-.62-.2-.94-.29"/><path class="cls-45" d="M202.41,224.43l121.24-.67c.3.1.59.22.89.35l-121.24.67c-.29-.13-.59-.24-.89-.35"/><path class="cls-27" d="M203.3,224.78l121.24-.67.48.22.36.19-121.23.67-.37-.19-.48-.22"/><path class="cls-28" d="M204.15,225.19l121.23-.67q.4.21.81.45L205,225.65a9.16,9.16,0,0,0-.8-.46"/><path class="cls-29" d="M205,225.65,326.19,225c.26.16.53.33.79.51l-121.24.68c-.26-.18-.52-.35-.79-.51"/><path class="cls-30" d="M205.74,226.16,327,225.48c.26.18.51.37.77.57l-121.24.67-.77-.56"/><path class="cls-31" d="M206.51,226.72l121.24-.67c.26.2.51.41.77.63l-121.24.67c-.26-.22-.51-.43-.77-.63"/><path class="cls-32" d="M207.28,227.35l121.24-.67c.25.22.51.45.76.7L208,228.05c-.25-.24-.51-.48-.76-.7"/><path class="cls-33" d="M208,228.05l121.24-.67c.26.24.51.5.77.77l-121.24.67c-.25-.27-.51-.53-.77-.77"/><path class="cls-34" d="M208.81,228.82l121.24-.67.26.28c.18.19.35.39.53.59l-121.24.67c-.17-.2-.35-.39-.53-.59l-.26-.28"/><path class="cls-35" d="M209.6,229.69,330.84,229c.27.31.53.63.79,1l-121.24.67c-.26-.33-.52-.65-.79-1"/><path class="cls-36" d="M210.39,230.65,331.63,230c.28.35.55.71.82,1.09l-121.23.67c-.28-.37-.55-.74-.83-1.09"/><path class="cls-37" d="M211.22,231.74l121.23-.67c.29.39.57.8.85,1.22L212.06,233c-.28-.43-.56-.83-.84-1.23"/><path class="cls-38" d="M212.06,233l121.24-.68c.29.45.58.91.86,1.38l-121.23.68q-.44-.72-.87-1.38"/><path class="cls-39" d="M212.93,234.35l121.23-.68c.31.52.62,1.05.91,1.6l-121.23.67c-.3-.54-.6-1.08-.91-1.59"/><path class="cls-40" d="M213.84,235.94l121.23-.67c.34.61.66,1.24,1,1.88l-121.23.68c-.32-.65-.64-1.28-1-1.89"/><path class="cls-41" d="M214.81,237.83,336,237.15c.35.71.69,1.44,1,2.19L215.82,240c-.33-.75-.67-1.48-1-2.19"/><path class="cls-42" d="M215.82,240l121.23-.68c.36.82.7,1.66,1,2.52l-121.24.68q-.5-1.31-1-2.52"/><path class="cls-43" d="M216.84,242.54l121.24-.68c.35.92.69,1.86,1,2.82l-121.24.68c-.32-1-.66-1.91-1-2.82"/><path class="cls-44" d="M217.85,245.36l121.24-.68c.33,1,.65,2,1,3l-121.24.67c-.3-1-.61-2.05-1-3"/><path class="cls-44" d="M218.8,248.4,340,247.73c.32,1.08.61,2.19.89,3.31l-121.24.68c-.27-1.13-.57-2.24-.89-3.32"/><path class="cls-44" d="M219.69,251.72,340.93,251c.32,1.28.61,2.59.88,3.92l-121.24.67c-.27-1.33-.56-2.63-.88-3.91"/><path class="cls-44" d="M220.57,255.63,341.81,255a107.16,107.16,0,0,1,1.82,13.61l-121.23.67a109.23,109.23,0,0,0-1.83-13.61"/><path class="cls-44" d="M222.4,269.24l121.23-.67c.08,1.14.15,2.29.19,3.45l-121.23.67c-.05-1.15-.11-2.31-.19-3.45"/><path class="cls-44" d="M222.59,272.69,343.82,272c0,.9.06,1.81.08,2.72l-121.24.67c0-.91,0-1.81-.07-2.72"/><path class="cls-44" d="M222.66,275.41l121.24-.67c0,.81,0,1.62,0,2.44l-121.24.67c0-.81,0-1.63,0-2.44"/><path class="cls-43" d="M222.67,277.85l121.24-.67c0,.76,0,1.52,0,2.28l-121.24.67q0-1.14,0-2.28"/><path class="cls-42" d="M222.64,280.13l121.24-.67a2.09,2.09,0,0,0,0,.25l-121.24.67c0-.08,0-.16,0-.25"/></g><path class="cls-44" d="M226.23,234.38l53.36-.3q1.14,1.92,2.16,4.1l-53.36.3a41.24,41.24,0,0,0-2.16-4.1m7.85,22.55,53.36-.29q.53,2.88.92,5.89l-53.35.29c-.26-1.77-.63-4.13-.93-5.89m-15.76-31.28,62.3-.35a18.34,18.34,0,0,1,3,2.4l-62.31.34a18.54,18.54,0,0,0-3-2.39m-6-1.94-.61,0,76.83-.42h.61c-25.62.14-51.22,1-76.83.43m1.44.16,76.83-.43a12.31,12.31,0,0,1,3.08,1l-76.83.42a12.28,12.28,0,0,0-3.08-1m8.87,5.55L299.5,229a26.52,26.52,0,0,1,2.48,3.25l-76.83.42a29,29,0,0,0-2.48-3.25m9.52,19.4L309,248.4c.5,1.76,1,3.59,1.36,5.46l-76.83.43c-.39-1.65-.93-3.83-1.36-5.47m59.91-25.56h-.6l16.73-.09h.61l-16.74.09m1.45.17,16.74-.1a12.24,12.24,0,0,1,3.07,1l-16.73.09a12,12,0,0,0-3.08-1m4.51,1.77,16.74-.09a17.76,17.76,0,0,1,3,2.4l-16.74.09a18.27,18.27,0,0,0-3-2.4m4.36,3.78,16.74-.09a29.48,29.48,0,0,1,2.48,3.25l-16.74.09a27.06,27.06,0,0,0-2.48-3.25m3.56,5,16.74-.1q1.14,1.92,2.16,4.1l-16.74.1a41.24,41.24,0,0,0-2.16-4.1m6,14.44,16.73-.09c.5,1.76,1,3.59,1.36,5.46l-16.74.09c-.4-1.87-.86-3.7-1.35-5.46m1.89,8.11,16.73-.09q.54,2.88.93,5.89l-16.74.09c-.25-1.77-.62-4.13-.92-5.89m-91.2,23.89,121.24-.67c.59-21.22-4.85-41.82-13.56-51.28a18,18,0,0,0-5.29-4.1,11.87,11.87,0,0,0-5.27-1.24l-121.24.68a11.86,11.86,0,0,1,5.27,1.23,18,18,0,0,1,5.29,4.1c8.71,9.46,14.15,30.06,13.56,51.28"/><path class="cls-36" d="M212.36,223.71l-.61,0,76.83-.42h.61c-25.62.14-51.22,1-76.83.43"/><path class="cls-36" d="M292.1,223.26h-.6l16.73-.09h.61l-16.74.09"/><path class="cls-36" d="M293.71,224.44a12.31,12.31,0,0,0-3.08-1l-76.83.43a12.28,12.28,0,0,1,3.08,1l76.83-.42"/><path class="cls-36" d="M313.36,224.33a12.24,12.24,0,0,0-3.07-1l-16.74.1a12,12,0,0,1,3.08,1l16.73-.09"/><path class="cls-36" d="M283.66,227.7a17.94,17.94,0,0,0-3-2.4l-62.3.35a18.54,18.54,0,0,1,3,2.39l62.31-.34"/><path class="cls-36" d="M317.84,227.51a17.76,17.76,0,0,0-3-2.4l-16.74.09a18.27,18.27,0,0,1,3,2.4l16.74-.09"/><path class="cls-36" d="M302,232.25A27.06,27.06,0,0,0,299.5,229l-76.83.42a28.19,28.19,0,0,1,2.48,3.25l76.83-.42"/><path class="cls-36" d="M321.64,232.14a29.48,29.48,0,0,0-2.48-3.25l-16.74.09a30.82,30.82,0,0,1,2.48,3.25l16.74-.09"/><path class="cls-36" d="M281.75,238.18q-1-2.18-2.16-4.1l-53.36.3a43,43,0,0,1,2.16,4.1l53.36-.3"/><path class="cls-36" d="M324.88,237.94q-1-2.17-2.16-4.1l-16.74.1a43,43,0,0,1,2.16,4.1l16.74-.1"/><path class="cls-36" d="M310.38,253.86c-.41-1.87-.86-3.7-1.36-5.46l-76.83.42c.43,1.64,1,3.82,1.36,5.47l76.83-.43"/><path class="cls-36" d="M330,253.75c-.4-1.87-.86-3.7-1.36-5.46l-16.73.09c.49,1.76.95,3.59,1.35,5.46l16.74-.09"/><path class="cls-36" d="M288.36,262.53q-.39-3-.92-5.89l-53.36.29c.3,1.76.67,4.12.93,5.89l53.35-.29"/><path class="cls-36" d="M331.49,262.29q-.39-3-.93-5.89l-16.73.09c.3,1.76.67,4.12.92,5.89l16.74-.09"/></g></g><polygon class="cls-53" points="526.47 653.6 433.51 690.07 -75.08 -562.74 17.87 -599.21 526.47 653.6"/><polygon class="cls-54" points="-119.61 924.47 -193.06 739.52 339.84 -425.05 432.65 -233.86 -119.61 924.47"/><polygon class="cls-55" points="651.28 339.52 472.44 426.81 -729.23 -16.12 -545.64 -123.18 651.28 339.52"/></g></g></g></svg>