<svg id="Layer_2" data-name="Layer 2" xmlns="http://www.w3.org/2000/svg" xmlns:xlink="http://www.w3.org/1999/xlink" width="1440" height="612" viewBox="0 0 1440 612"><defs><style>.cls-1{fill:none;}.cls-2{clip-path:url(#clip-path);}.cls-3{fill:url(#linear-gradient);}.cls-4{fill:url(#linear-gradient-2);}.cls-5{fill:url(#linear-gradient-3);}.cls-6{fill:url(#linear-gradient-4);}.cls-7{fill:url(#linear-gradient-5);}.cls-8{fill:url(#New_Gradient_Swatch_53);}.cls-9{fill:url(#linear-gradient-6);}.cls-10{fill:url(#linear-gradient-7);}.cls-11{fill:url(#linear-gradient-8);}.cls-12{fill:url(#linear-gradient-9);}.cls-13{fill:url(#linear-gradient-10);}.cls-14{fill:url(#linear-gradient-11);}.cls-15{fill:url(#linear-gradient-12);}.cls-16{fill:url(#linear-gradient-13);}.cls-17{fill:url(#New_Gradient_Swatch_57);}.cls-18{fill:url(#radial-gradient);}.cls-19{fill:url(#radial-gradient-2);}.cls-20{fill:url(#linear-gradient-14);}.cls-21{fill:url(#linear-gradient-15);}.cls-22{fill:url(#linear-gradient-16);}.cls-23{fill:url(#New_Gradient_Swatch_57-2);}.cls-24{fill:url(#New_Gradient_Swatch_57-3);}.cls-25{fill:url(#New_Gradient_Swatch_57-4);}.cls-26{fill:url(#linear-gradient-17);}.cls-27{fill:url(#linear-gradient-18);}.cls-28{fill:url(#linear-gradient-19);}.cls-29{fill:url(#linear-gradient-20);}.cls-30{fill:url(#New_Gradient_Swatch_57-5);}.cls-31{fill:url(#New_Gradient_Swatch_57-6);}.cls-32{fill:url(#linear-gradient-21);}.cls-33{fill:url(#linear-gradient-22);}.cls-34{fill:url(#New_Gradient_Swatch_57-7);}.cls-35{fill:url(#linear-gradient-23);}.cls-36{fill:url(#New_Gradient_Swatch_56);}.cls-37{fill:url(#linear-gradient-24);}.cls-38{fill:url(#linear-gradient-25);}.cls-39{fill:url(#linear-gradient-26);}.cls-40{fill:url(#linear-gradient-27);}.cls-41{fill:url(#linear-gradient-28);}.cls-42{fill:url(#New_Gradient_Swatch_56-2);}.cls-43{fill:url(#linear-gradient-29);}.cls-44{fill:url(#linear-gradient-30);}.cls-45{fill:url(#linear-gradient-31);}.cls-46{fill:url(#linear-gradient-32);}.cls-47{fill:url(#linear-gradient-33);}</style><clipPath id="clip-path"><rect class="cls-1" width="1440" height="612"/></clipPath><linearGradient id="linear-gradient" x1="700.75562" y1="249.24433" x2="1303.0074" y2="472.86554" gradientUnits="userSpaceOnUse"><stop offset="0.05275" stop-color="#d2ddf1" stop-opacity="0.3"/><stop offset="0.16474" stop-color="#b8c7dd" stop-opacity="0.33257"/><stop offset="0.31932" stop-color="#6e89a4" stop-opacity="0.42381"/><stop offset="0.41672" stop-color="#305575" stop-opacity="0.5"/><stop offset="0.83517" stop-color="#243750"/><stop offset="0.85432" stop-color="#243750" stop-opacity="0"/></linearGradient><linearGradient id="linear-gradient-2" x1="994.94371" y1="78.34095" x2="860.52219" y2="599.03122" gradientUnits="userSpaceOnUse"><stop offset="0.05275" stop-color="#d2ddf1"/><stop offset="0.10544" stop-color="#ccd8ec"/><stop offset="0.17839" stop-color="#bac9de"/><stop offset="0.2632" stop-color="#9cb0c8"/><stop offset="0.3569" stop-color="#738ea9"/><stop offset="0.45682" stop-color="#406281"/><stop offset="0.4843" stop-color="#305575"/><stop offset="0.64342" stop-color="#243750"/><stop offset="0.79612" stop-color="#243750" stop-opacity="0"/></linearGradient><linearGradient id="linear-gradient-3" x1="999.02642" y1="575.84937" x2="928.11951" y2="217.44428" gradientUnits="userSpaceOnUse"><stop offset="0.14338" stop-color="#f4d4c5" stop-opacity="0"/><stop offset="0.23952" stop-color="#276180" stop-opacity="0.1"/><stop offset="0.37506" stop-color="#6c8897" stop-opacity="0.4023"/><stop offset="0.64861" stop-color="#f4d4c5"/><stop offset="0.73379" stop-color="#f5dacd"/><stop offset="0.86329" stop-color="#f9e9e2"/><stop offset="1" stop-color="#fff"/></linearGradient><linearGradient id="linear-gradient-4" x1="957.62042" y1="589.17283" x2="1137.38862" y2="351.99967" gradientUnits="userSpaceOnUse"><stop offset="0.18116" stop-color="#28607f" stop-opacity="0"/><stop offset="0.31887" stop-color="#275e7d" stop-opacity="0.06904"/><stop offset="0.51606" stop-color="#245977" stop-opacity="0.2617"/><stop offset="0.74903" stop-color="#20506e" stop-opacity="0.57766"/><stop offset="1" stop-color="#1a4462"/></linearGradient><linearGradient id="linear-gradient-5" x1="999.76349" y1="73.24162" x2="999.76349" y2="452.93875" gradientUnits="userSpaceOnUse"><stop offset="0.03588" stop-color="#fff"/><stop offset="0.08609" stop-color="#fcfdfe"/><stop offset="0.12202" stop-color="#f3f6fb"/><stop offset="0.1534" stop-color="#e3eaf6"/><stop offset="0.17673" stop-color="#d2ddf1"/><stop offset="0.25302" stop-color="#abb8cd"/><stop offset="0.34976" stop-color="#8090a7"/><stop offset="0.44826" stop-color="#5d6f87"/><stop offset="0.54724" stop-color="#41556e"/><stop offset="0.64686" stop-color="#2e435c"/><stop offset="0.74759" stop-color="#223852"/><stop offset="0.85119" stop-color="#1e344e"/></linearGradient><linearGradient id="New_Gradient_Swatch_53" x1="1174.59733" y1="142.10069" x2="1081.92708" y2="235.37663" gradientUnits="userSpaceOnUse"><stop offset="0" stop-color="#cfd9e6"/><stop offset="0.14954" stop-color="#b7c3d1"/><stop offset="0.46615" stop-color="#79899c"/><stop offset="0.88624" stop-color="#1e344e"/></linearGradient><linearGradient id="linear-gradient-6" x1="1069.00941" y1="245.77068" x2="1042.99254" y2="230.99981" gradientUnits="userSpaceOnUse"><stop offset="0" stop-color="#f19b7f" stop-opacity="0"/><stop offset="0.04277" stop-color="#f09a7f" stop-opacity="0.05639"/><stop offset="0.309" stop-color="#ea987c" stop-opacity="0.38787"/><stop offset="0.54721" stop-color="#e6957a" stop-opacity="0.6508"/><stop offset="0.74895" stop-color="#e39379" stop-opacity="0.84042"/><stop offset="0.90629" stop-color="#e19278" stop-opacity="0.95688"/><stop offset="1" stop-color="#e09278"/></linearGradient><linearGradient id="linear-gradient-7" x1="835.07145" y1="277.33025" x2="835.07145" y2="345.87117" gradientUnits="userSpaceOnUse"><stop offset="0.03323" stop-color="#fff"/><stop offset="0.24562" stop-color="#d2ddf1"/><stop offset="0.33636" stop-color="#bac6db"/><stop offset="0.52845" stop-color="#7c8ca3"/><stop offset="0.79142" stop-color="#1e344e"/></linearGradient><linearGradient id="linear-gradient-8" x1="859.58723" y1="224.71468" x2="859.58723" y2="383.08492" gradientUnits="userSpaceOnUse"><stop offset="0" stop-color="#fff"/><stop offset="0.08947" stop-color="#fdfdfe"/><stop offset="0.13281" stop-color="#f5f8fc"/><stop offset="0.16611" stop-color="#e8eef8"/><stop offset="0.19429" stop-color="#d6e0f2"/><stop offset="0.19899" stop-color="#d2ddf1"/><stop offset="0.23603" stop-color="#c0cce1"/><stop offset="0.34665" stop-color="#8f9eb4"/><stop offset="0.45643" stop-color="#667890"/><stop offset="0.56331" stop-color="#475a73"/><stop offset="0.6665" stop-color="#30455e"/><stop offset="0.76432" stop-color="#233852"/><stop offset="0.85119" stop-color="#1e344e"/></linearGradient><linearGradient id="linear-gradient-9" x1="738.38291" y1="312.21945" x2="812.77277" y2="397.76779" gradientUnits="userSpaceOnUse"><stop offset="0.0025" stop-color="#fff"/><stop offset="0.08728" stop-color="#d2ddf1"/><stop offset="0.18992" stop-color="#bac6db"/><stop offset="0.40722" stop-color="#7c8ca3"/><stop offset="0.70469" stop-color="#1e344e"/></linearGradient><linearGradient id="linear-gradient-10" x1="820.96022" y1="194.46162" x2="820.96022" y2="376.35942" xlink:href="#linear-gradient-8"/><linearGradient id="linear-gradient-11" x1="1087.82405" y1="368.82095" x2="990.42336" y2="269.44592" gradientUnits="userSpaceOnUse"><stop offset="0" stop-color="#ecd6c8"/><stop offset="0.29461" stop-color="#eec7b5"/><stop offset="0.97203" stop-color="#f2a68d"/></linearGradient><linearGradient id="linear-gradient-12" x1="1100.83579" y1="272.52405" x2="1122.23125" y2="465.08319" gradientUnits="userSpaceOnUse"><stop offset="0" stop-color="#d2ddf1"/><stop offset="0.15258" stop-color="#bac6db"/><stop offset="0.4756" stop-color="#7c8ca3"/><stop offset="0.91781" stop-color="#1e344e"/></linearGradient><linearGradient id="linear-gradient-13" x1="1042.43437" y1="354.53489" x2="1072.15201" y2="442.15141" gradientTransform="translate(20.26842 1.38058) rotate(0.27816)" gradientUnits="userSpaceOnUse"><stop offset="0" stop-color="#fff"/><stop offset="0.07541" stop-color="#f0f3f9"/><stop offset="0.21728" stop-color="#dbe2f0"/><stop offset="0.35541" stop-color="#ced8eb"/><stop offset="0.48442" stop-color="#cad4e9"/><stop offset="0.56268" stop-color="#b6c2d7"/><stop offset="0.7226" stop-color="#8392a9"/><stop offset="0.94818" stop-color="#324660"/><stop offset="1" stop-color="#1e344e"/></linearGradient><linearGradient id="New_Gradient_Swatch_57" x1="695.27179" y1="368.75408" x2="949.62672" y2="441.84834" gradientTransform="translate(20.26842 1.38058) rotate(0.27816)" gradientUnits="userSpaceOnUse"><stop offset="0.30834" stop-color="#1e344e"/><stop offset="0.88624" stop-color="#1e344e"/></linearGradient><radialGradient id="radial-gradient" cx="1158.74103" cy="434.00175" r="65.98037" gradientTransform="matrix(0.81254, 0.00394, -0.00485, 0.99999, -162.71911, 0.4922)" gradientUnits="userSpaceOnUse"><stop offset="0" stop-color="#d2ddf1"/><stop offset="0.25154" stop-color="#8e9db3"/><stop offset="0.64048" stop-color="#1e344e"/></radialGradient><radialGradient id="radial-gradient-2" cx="1077.2561" cy="447.89803" r="83.33468" gradientTransform="matrix(0.92356, 0.00448, -0.00485, 0.99999, -63.3435, 0.97465)" gradientUnits="userSpaceOnUse"><stop offset="0" stop-color="#d2ddf1"/><stop offset="0.28274" stop-color="#8e9db3"/><stop offset="0.71994" stop-color="#1e344e"/></radialGradient><linearGradient id="linear-gradient-14" x1="914.43071" y1="459.31947" x2="917.95134" y2="270.30913" gradientTransform="translate(20.26842 1.38058) rotate(0.27816)" gradientUnits="userSpaceOnUse"><stop offset="0.07531" stop-color="#1e344e"/><stop offset="0.18942" stop-color="#52657d"/><stop offset="0.30607" stop-color="#7f8fa6"/><stop offset="0.41807" stop-color="#a3b1c7"/><stop offset="0.52256" stop-color="#bdc9de"/><stop offset="0.61665" stop-color="#cdd8ec"/><stop offset="0.6914" stop-color="#d2ddf1"/></linearGradient><linearGradient id="linear-gradient-15" x1="732.13904" y1="380.9693" x2="1075.28884" y2="398.46918" gradientTransform="translate(20.26842 1.38058) rotate(0.27816)" gradientUnits="userSpaceOnUse"><stop offset="0.29193" stop-color="#d2ddf1" stop-opacity="0.3"/><stop offset="0.57535" stop-color="#d2ddf1" stop-opacity="0.20051"/><stop offset="0.57666" stop-color="#d2ddf1" stop-opacity="0.2"/></linearGradient><linearGradient id="linear-gradient-16" x1="1112.69762" y1="442.97696" x2="1017.62801" y2="375.48651" gradientUnits="userSpaceOnUse"><stop offset="0.19968" stop-color="#d2ddf1"/><stop offset="0.3601" stop-color="#dae3f4"/><stop offset="0.60932" stop-color="#f0f4fa"/><stop offset="0.74618" stop-color="#fff"/></linearGradient><linearGradient id="New_Gradient_Swatch_57-2" x1="998.36294" y1="401.95252" x2="1087.81886" y2="401.95252" xlink:href="#New_Gradient_Swatch_57"/><linearGradient id="New_Gradient_Swatch_57-3" x1="743.0823" y1="435.5401" x2="766.87046" y2="435.5401" xlink:href="#New_Gradient_Swatch_57"/><linearGradient id="New_Gradient_Swatch_57-4" x1="879.86987" y1="448.21317" x2="923.35098" y2="448.21317" gradientTransform="translate(1367.90539 -447.6448) rotate(90)" xlink:href="#New_Gradient_Swatch_57"/><linearGradient id="linear-gradient-17" x1="1051.73144" y1="421.77619" x2="1052.9504" y2="487.19353" gradientTransform="translate(20.26842 1.38058) rotate(0.27816)" gradientUnits="userSpaceOnUse"><stop offset="0.03731" stop-color="#fff"/><stop offset="0.1536" stop-color="#e7edf8"/><stop offset="0.24144" stop-color="#d2ddf1"/><stop offset="0.34863" stop-color="#bac6db"/><stop offset="0.57557" stop-color="#7c8ca3"/><stop offset="0.88624" stop-color="#1e344e"/></linearGradient><linearGradient id="linear-gradient-18" x1="902.81479" y1="372.6027" x2="1081.67038" y2="372.6027" gradientTransform="translate(20.26842 1.38058) rotate(0.27816)" gradientUnits="userSpaceOnUse"><stop offset="0.03731" stop-color="#fff" stop-opacity="0.2"/><stop offset="0.24353" stop-color="#e7edf8" stop-opacity="0.30555"/><stop offset="0.40221" stop-color="#d2ddf1" stop-opacity="0.4"/></linearGradient><linearGradient id="linear-gradient-19" x1="751.44824" y1="389.38821" x2="1014.22441" y2="300.75956" gradientUnits="userSpaceOnUse"><stop offset="0.02695" stop-color="#cfd9e6"/><stop offset="0.05896" stop-color="#c1ccda"/><stop offset="0.16679" stop-color="#96a4b5"/><stop offset="0.28003" stop-color="#718195"/><stop offset="0.3977" stop-color="#53657b"/><stop offset="0.52113" stop-color="#3b4f67"/><stop offset="0.65298" stop-color="#2b4059"/><stop offset="0.79898" stop-color="#213751"/><stop offset="0.9871" stop-color="#1e344e"/></linearGradient><linearGradient id="linear-gradient-20" x1="830.7107" y1="300.04868" x2="1050.89551" y2="395.11829" gradientUnits="userSpaceOnUse"><stop offset="0" stop-color="#cfd9e6"/><stop offset="0.28168" stop-color="#94a2b3"/><stop offset="0.70568" stop-color="#3f536b"/><stop offset="0.89928" stop-color="#1e344e"/><stop offset="0.9871" stop-color="#1e344e"/></linearGradient><linearGradient id="New_Gradient_Swatch_57-5" x1="815.89058" y1="343.46264" x2="835.59047" y2="347.37944" xlink:href="#New_Gradient_Swatch_57"/><linearGradient id="New_Gradient_Swatch_57-6" x1="781.37044" y1="345.01632" x2="790.48935" y2="348.14098" xlink:href="#New_Gradient_Swatch_57"/><linearGradient id="linear-gradient-21" x1="922.81523" y1="416.89508" x2="1010.11186" y2="381.61768" xlink:href="#linear-gradient-16"/><linearGradient id="linear-gradient-22" x1="-2581.68023" y1="435.91324" x2="-2572.08981" y2="437.1578" gradientTransform="matrix(-0.99978, 0.02113, 0.02113, 0.99978, -1476.57286, 15.92214)" xlink:href="#linear-gradient-16"/><linearGradient id="New_Gradient_Swatch_57-7" x1="1031.20297" y1="464.38499" x2="1064.468" y2="464.38499" xlink:href="#New_Gradient_Swatch_57"/><linearGradient id="linear-gradient-23" x1="784.10239" y1="354.84739" x2="861.68278" y2="389.37739" gradientUnits="userSpaceOnUse"><stop offset="0.1517" stop-color="#d2ddf1" stop-opacity="0"/><stop offset="0.25464" stop-color="#d2ddf1" stop-opacity="0.10019"/><stop offset="0.47264" stop-color="#d2ddf1" stop-opacity="0.35805"/><stop offset="0.78559" stop-color="#d2ddf1" stop-opacity="0.76736"/><stop offset="0.88257" stop-color="#d2ddf1" stop-opacity="0.9"/></linearGradient><linearGradient id="New_Gradient_Swatch_56" x1="774.73649" y1="375.5973" x2="778.06728" y2="465.52887" gradientUnits="userSpaceOnUse"><stop offset="0" stop-color="#ecd6c8"/><stop offset="0.24559" stop-color="#eec7b5"/><stop offset="0.81032" stop-color="#f2a68d"/></linearGradient><linearGradient id="linear-gradient-24" x1="1203.56609" y1="382.73708" x2="1134.74177" y2="481.05753" gradientUnits="userSpaceOnUse"><stop offset="0.0025" stop-color="#fff"/><stop offset="0.09053" stop-color="#d2ddf1"/><stop offset="0.33199" stop-color="#ced9ee"/><stop offset="0.39376" stop-color="#c5d1e6"/><stop offset="0.49453" stop-color="#adbad0"/><stop offset="0.62178" stop-color="#8595ac"/><stop offset="0.76894" stop-color="#4f627a"/><stop offset="0.88624" stop-color="#1e344e"/></linearGradient><linearGradient id="linear-gradient-25" x1="1107.98152" y1="346.02152" x2="1145.68052" y2="457.16949" gradientUnits="userSpaceOnUse"><stop offset="0" stop-color="#fff"/><stop offset="0.12482" stop-color="#f9fafc"/><stop offset="0.29399" stop-color="#e8ecf5"/><stop offset="0.48784" stop-color="#cbd5ea"/><stop offset="0.49552" stop-color="#cad4e9"/><stop offset="0.72493" stop-color="#75859d"/><stop offset="0.91187" stop-color="#364b64"/><stop offset="1" stop-color="#1e344e"/></linearGradient><linearGradient id="linear-gradient-26" x1="1082.04097" y1="332.93671" x2="1074.73569" y2="498.523" xlink:href="#linear-gradient-11"/><linearGradient id="linear-gradient-27" x1="973.17265" y1="449.57442" x2="1010.55439" y2="401.19804" gradientUnits="userSpaceOnUse"><stop offset="0.28691" stop-color="#d2ddf1" stop-opacity="0"/><stop offset="0.42838" stop-color="#d2ddf1" stop-opacity="0.09993"/><stop offset="0.72568" stop-color="#d2ddf1" stop-opacity="0.35504"/><stop offset="0.88257" stop-color="#d2ddf1" stop-opacity="0.5"/></linearGradient><linearGradient id="linear-gradient-28" x1="1119.8049" y1="451.54897" x2="1100.97036" y2="406.10689" gradientUnits="userSpaceOnUse"><stop offset="0.34338" stop-color="#d2ddf1" stop-opacity="0"/><stop offset="0.47144" stop-color="#d2ddf1" stop-opacity="0.09993"/><stop offset="0.74055" stop-color="#d2ddf1" stop-opacity="0.35504"/><stop offset="0.88257" stop-color="#d2ddf1" stop-opacity="0.5"/></linearGradient><linearGradient id="New_Gradient_Swatch_56-2" x1="970.06171" y1="284.2283" x2="975.05408" y2="161.41592" xlink:href="#New_Gradient_Swatch_56"/><linearGradient id="linear-gradient-29" x1="982.20981" y1="242.90623" x2="971.81109" y2="227.49384" gradientUnits="userSpaceOnUse"><stop offset="0" stop-color="#f19b7f" stop-opacity="0"/><stop offset="0.0963" stop-color="#f19b7f" stop-opacity="0.02511"/><stop offset="0.22602" stop-color="#f19b7f" stop-opacity="0.0962"/><stop offset="0.37475" stop-color="#f19b7f" stop-opacity="0.21325"/><stop offset="0.53761" stop-color="#f19b7f" stop-opacity="0.3764"/><stop offset="0.71203" stop-color="#f19b7f" stop-opacity="0.58583"/><stop offset="0.89329" stop-color="#f19b7f" stop-opacity="0.83722"/><stop offset="1" stop-color="#f19b7f"/></linearGradient><linearGradient id="linear-gradient-30" x1="837.81528" y1="294.46671" x2="752.38389" y2="298.82545" gradientUnits="userSpaceOnUse"><stop offset="0" stop-color="#fff" stop-opacity="0.5"/><stop offset="0.0729" stop-color="#fff" stop-opacity="0.43521"/><stop offset="0.27134" stop-color="#fff" stop-opacity="0.27983"/><stop offset="0.46706" stop-color="#fff" stop-opacity="0.15769"/><stop offset="0.65668" stop-color="#fff" stop-opacity="0.07041"/><stop offset="0.83747" stop-color="#fff" stop-opacity="0.01787"/><stop offset="1" stop-color="#fff" stop-opacity="0"/></linearGradient><linearGradient id="linear-gradient-31" x1="1212.33094" y1="249.62883" x2="1034.53502" y2="227.27914" gradientUnits="userSpaceOnUse"><stop offset="0" stop-color="#fff" stop-opacity="0.5"/><stop offset="0.00547" stop-color="#fff" stop-opacity="0.4937"/><stop offset="0.15033" stop-color="#fff" stop-opacity="0.34315"/><stop offset="0.30054" stop-color="#fff" stop-opacity="0.2189"/><stop offset="0.4561" stop-color="#fff" stop-opacity="0.12241"/><stop offset="0.61876" stop-color="#fff" stop-opacity="0.05385"/><stop offset="0.79318" stop-color="#fff" stop-opacity="0.01311"/><stop offset="1" stop-color="#fff" stop-opacity="0"/></linearGradient><linearGradient id="linear-gradient-32" x1="-3804.31738" y1="-4841.28754" x2="-3998.61039" y2="-4868.85868" gradientTransform="matrix(0.7109, 0.68196, -0.68696, 0.74768, 384.24403, 6612.28739)" gradientUnits="userSpaceOnUse"><stop offset="0" stop-color="#fff" stop-opacity="0.5"/><stop offset="0.02223" stop-color="#fff" stop-opacity="0.47332"/><stop offset="0.15784" stop-color="#fff" stop-opacity="0.32885"/><stop offset="0.30009" stop-color="#fff" stop-opacity="0.20942"/><stop offset="0.44889" stop-color="#fff" stop-opacity="0.1169"/><stop offset="0.60694" stop-color="#fff" stop-opacity="0.05127"/><stop offset="0.78064" stop-color="#fff" stop-opacity="0.01236"/><stop offset="1" stop-color="#fff" stop-opacity="0"/></linearGradient><linearGradient id="linear-gradient-33" x1="1031.69679" y1="165.26605" x2="958.77124" y2="264.56185" gradientUnits="userSpaceOnUse"><stop offset="0" stop-color="#fff" stop-opacity="0.5"/><stop offset="0.00432" stop-color="#fff" stop-opacity="0.4937"/><stop offset="0.11864" stop-color="#fff" stop-opacity="0.34315"/><stop offset="0.2372" stop-color="#fff" stop-opacity="0.2189"/><stop offset="0.35997" stop-color="#fff" stop-opacity="0.12241"/><stop offset="0.48834" stop-color="#fff" stop-opacity="0.05385"/><stop offset="0.626" stop-color="#fff" stop-opacity="0.01311"/><stop offset="0.78923" stop-color="#fff" stop-opacity="0"/></linearGradient></defs><g class="cls-2"><circle class="cls-3" cx="937.29634" cy="337.07391" r="205.75454"/><path class="cls-4" d="M1149.361,310.91809c0-118.4427-96.01679-214.45948-214.45949-214.45948S720.44205,192.47539,720.44205,310.91809c0,60.834,22.94917,103.93839,63.63675,142.96945,64.28723-3.306,257.255,5.36848,307.67908,3.2814A213.70666,213.70666,0,0,0,1149.361,310.91809Z"/><circle class="cls-5" cx="967.08415" cy="414.39442" r="224.00539"/><circle class="cls-6" cx="1045.58434" cy="473.1196" r="148.35553"/><path class="cls-7" d="M852.09146,348.93939s57.89014-38.273,55.95225-94.55091c-1.48939-43.253-27.93384-54.22281-10.8149-109.19131,7.80679-25.06743,44.12628-49.73129,81.31681-44.29373,43.41808,6.34809,114.27934,45.92,146.60533,110.93691,10.84481,21.81207,18.05655,48.57584,21.17,63.37135,11.03617,52.44589-60.07024,282.32979-204.98958,162.96756C923.78445,423.72684,852.09146,348.93939,852.09146,348.93939Z"/><path class="cls-8" d="M1037.90673,175.03492c28.39307-13.824,50.75932,6.31148,66.08891,22.42649,29.37637,30.88147,42.32527,77.75029,42.32527,77.75029-12.23634-8.18395-33.903-18.95739-33.903-18.95739-5.76124-3.54921-8.52668-5.64884-17.4611-13.35361-31.27173-26.96777-60.07968-51.70331-60.07968-51.70331S1038.576,187.54506,1037.90673,175.03492Z"/><path class="cls-9" d="M1030.23287,193.89734l4.9257-2.63585c1.4813,1.267,15.854,13.80075,20.51146,17.80748,7.825,6.73162,16.86364,14.51133,16.86364,14.51133a129.9522,129.9522,0,0,0-10.01739,23.32186c-4.032,13.57418-8.97144,25.37928-8.97144,25.37928s-4.64678-4.578-11.76428-11.32384c-2.95351-2.79927-9.868-8.65366-9.868-8.65366s5.55526-14.33779,5.02752-27.92419S1030.23287,193.89734,1030.23287,193.89734Z"/><path class="cls-10" d="M847.32934,388.15907V274.37124l-.0192-.0233a106.56438,106.56438,0,0,0-14.13609,113.81113Z"/><path class="cls-11" d="M863.8867,382.75278a106.59961,106.59961,0,0,0-16.53816-108.40484l-.0192.0233V382.75278Z"/><path class="cls-12" d="M794.99975,453.162V270.87057l-.04066-.04933a224.55416,224.55416,0,0,0-51.88033,143.774c-.007,13.14849-1.97076-2.83756.18252,9.69518l19.14285,18.83455Z"/><path class="cls-13" d="M845.12362,443.29543a227.62344,227.62344,0,0,0,1.797-28.70022,224.55354,224.55354,0,0,0-51.88025-143.774l-.04065.04933V443.29543Z"/><path class="cls-14" d="M1032.25743,253.111s30.48119,25.45054,30.10619,32.64c-.03984.76448-29.21332,29.00953-53.54184,52.65-18.53735,18.01322-33.82684,33.03965-33.82684,33.03965l-17.79118,17.02357L970.7702,398.996s16.0456,3.90349,28.368,9.85236c7.42383-5.3579,24.55423-20.55876,31.43812-25.50019q3.532-2.53541,6.92175-4.60792c33.89762-20.80114,57.18347-9.20859,71.6219-17.896,31.42048-18.90576,37.63669-84.80727,37.63669-84.80727s-14.34657-10.04121-21.47475-13.60151c-19.32915-9.65437-29.87573-18.70526-42.8527-29.87343-32.66794-28.11435-55.7816-48.0348-55.7816-48.0348Z"/><path class="cls-15" d="M1043.59211,304.5565s8.13668,65.28154,49.55192,41.44431c27.43462-15.79045,53.17688-70.78911,53.17688-70.78911s45.03744,28.97019,70.76369,84.86327c3.55632,7.72649-1.50688,62.77231-1.50688,62.77231s-5.96039,39.33132-21.126,37.20281-59.69174,3.76082-59.69174,3.76082l-9.9265,2.55391-105.62278,8.91792L1031.63943,409.96l6.10684-32.09616-35.87434-33.54556Z"/><path class="cls-16" d="M1097.72054,476.35558l.39668-81.70821-.04336-.0483c-16.12626,17.57868-25.87062,40.19675-25.974,64.91039a93.7585,93.7585,0,0,0,1.43427,16.72869Z"/><polygon class="cls-17" points="979.458 469.79 896.828 466.328 754.968 441.63 756.867 385.299 979.82 395.309 979.458 469.79"/><path class="cls-18" d="M808.36893,438.79761c-.093,16.57845-5.37113,27.49064-10.59335,31.83211a10.44121,10.44121,0,0,1-4.27625,1.43409c-5.98029.2775-19.33845,1.153-22.12637.35931-9.6477-2.74641-14.54546-18.50987-14.4705-33.95023.06308-12.99407,3.95253-22.93069,11.29116-29.07316a13.26025,13.26025,0,0,1,4.25425-2.12026c6.25075-1.12065,20.31322-.56386,23.71,2.50646C803.35453,416.29065,808.44105,425.94324,808.36893,438.79761Z"/><path class="cls-19" d="M966.53477,452.22818c-.11846,20.73291-7.61213,34.37531-15.03179,39.80042a16.249,16.249,0,0,1-6.0774,1.78992c-8.50061.34208-23.00865,1.82787-27.0582,1.27907-18.37423-2.4901-26.18822-23.9203-26.09448-43.23.0789-16.25032,6.70263-28.76208,17.12923-36.43776a19.93113,19.93113,0,0,1,6.04555-2.64807c8.88436-1.3963,28.8743-.68831,33.70532,3.15425A44.65511,44.65511,0,0,1,966.53477,452.22818Z"/><path class="cls-20" d="M756.13855,441.8699l-3.26232-.44233s-3.1401-9.35743-2.15551-17.38987a13.23753,13.23753,0,0,1,2.52586-6.77887s.38682-26.56041.30671-27.76475c-.08011-1.20378,2.10729-9.10173,4.53168-12.70014a44.1861,44.1861,0,0,1,6.13708-6.93325s7.75419-11.65414,13.11156-18.17151a51.50223,51.50223,0,0,1,9.45795-9.27c5.71735-4.14423,15.39058-7.9009,22.746-10.678,28.05526-10.5924,68.63372-9.91529,77.05721-9.80473,11.57342.15169,46.20354-.54087,77.18445,4.7939a95.17485,95.17485,0,0,1,21.97295,6.89781c6.43289,2.95432,59.578,34.24435,59.578,34.24435s8.069,2.36057,20.437,4.56953,29.19369,6.93286,34.57754,13.49227c5.38377,6.5594,4.9565,6.04158,8.95742,14.14149a154.91131,154.91131,0,0,1,6.81941,17.14854c.56228,1.6623-.06511,5.77674-.06511,5.77674l-9.2491,39.85524-.87125,2.14944s-69.01339,5.63791-75.20512,6.12359c-6.19165.48568-22.35815,1.61059-28.892,1.75078-6.53387.14019-46.21124-1.25583-46.21124-1.25583s-1.15286-24.73529-3.85735-36.802c-2.56136-11.72656-8.14129-21.23822-15.52282-27.97923-6.03711-5.51312-10.48143-6.6836-14.60164-6.90473a23.48286,23.48286,0,0,0-16.78957,5.52758c-13.202,11.23876-11.72555,30.417-11.45057,34.34227-2.0671,18.82474.14025,26.0106.14025,26.0106L791.2169,452.16763s1.69489-15.84735.06753-25.91274c-1.62743-10.06595-8.384-19.40678-10.46927-21.45571a10.32914,10.32914,0,0,0-9.946-3.07868c-4.68937,1.0031-7.73638,4.7449-9.68688,9.94641C754.646,429.09781,756.13855,441.8699,756.13855,441.8699Z"/><path class="cls-21" d="M893.46118,408.37072s-71.773-7.21123-88.55317-5.16682a32.99657,32.99657,0,0,0-14.675,5.31012s-7.68777-13.23383-16.00277-13.70879c-15.5554-.88853-19.23407,21.27343-19.23407,21.27343l-1.7269,1.05572.32852-28.26425s8.13372-6.509,7.76-8.75123-3.18658-3.638-3.18658-3.638a50.53089,50.53089,0,0,1,6.05086-6.62018c1.99406-3.16791,11.00523-15.89237,15.78835-21.235,4.89686-5.46958,8.42012-7.36936,13.4331-10.21081,7.4033-4.19672,27.37669-12.40464,53.11816-14.57542,17.36911-1.46474,36.9819-1.82229,47.39786-1.77172,63.32142.30742,75.6847,5.41472,82.38838,7.77708,6.70362,2.36237,25.15684,12.18191,31.44271,15.91249,6.28593,3.73059,37.53952,22.11523,37.53952,22.11523s10.30486,2.78491,16.1936,3.636c5.88874.85051,19.85152,4.0706,26.14205,6.84164,6.29059,2.7716,8.47921,3.60472,11.07168,5.94656a36.99374,36.99374,0,0,1,6.53866,8.11785c1.76755,2.88616,6.24269,12.63784,7.86917,16.34636a79.59391,79.59391,0,0,1,2.81912,8.34314c.49509,1.70328.14194,5.77029.14194,5.77029l-6.38422,26.753-9.19306-12.93006-71.52643,3.96123-68.32509,29.97074s4.49854-49.0831-21.37668-70.03264a32.80982,32.80982,0,0,0-19.55718-7.24395C903.21478,392.89948,893.46118,408.37072,893.46118,408.37072Z"/><polygon class="cls-22" points="1013.083 407.848 1022.44 392.292 1059.879 391.577 1060.86 392.732 1071.374 392.726 1072.223 391.333 1101.091 391.114 1108.657 407.81 1101.06 421.665 1026.338 425.293 1013.083 407.848"/><polygon class="cls-23" points="1024.369 395.216 1016.67 407.698 1027.693 423.132 1099.856 419.806 1106.127 407.765 1099.967 393.676 1073.507 394.191 1072.519 395.459 1059.573 395.671 1058.548 394.462 1024.369 395.216"/><path class="cls-24" d="M785.01315,441.09583c-.07133,14.69346-5.62023,25.66366-12.39928,25.63074s-11.45948-11.14752-11.38814-25.841,4.863-26.48713,11.642-26.45422S785.08449,426.40236,785.01315,441.09583Z"/><ellipse class="cls-25" cx="919.69222" cy="453.96562" rx="32.91676" ry="21.74055" transform="translate(461.26701 1371.44308) rotate(-89.72184)"/><path class="cls-26" d="M1102.82116,465.25268a39.87792,39.87792,0,0,1-64.669,5.39065"/><path class="cls-27" d="M921.30193,370.47741s23.92393,2.02541,54.41091,7.6235c20.3516,3.737,45.73014,10.69971,45.73014,10.69971l37.39852-.46385,1.08934,1.231,10.4639-.00627.89421-1.46905,28.7864-.25538a56.76523,56.76523,0,0,0-6.07093-5.32644c-3.72552-2.85486-18.566-6.77275-27.42968-8.59513-12.81129-2.634-21.89454-4.97124-23.69722-5.49577C978.553,369.73,921.30193,370.47741,921.30193,370.47741Z"/><path class="cls-28" d="M778.95867,362.23852c-.24922.487,14.15912,5.09757,14.15912,5.09757a61.021,61.021,0,0,0,6.10965,1.26976c1.65734.13558,86.69355,1.34516,89.812,1.388,14.88954.20441,19.35638-.4116,19.35638-.4116S887.48584,342.65018,875.53,335.24231c-8.97142-5.5587-14.40338-5.83681-23.30095-5.75106-33.09376.9751-51.32538,10.307-56.47765,13.29374C788.25152,347.13269,781.74825,356.78743,778.95867,362.23852Z"/><path class="cls-29" d="M919.58,368.4828s-14.59571-15.948-21.78073-23.33269-19.36692-16.65325-19.36692-16.65325,26.54851-2.04443,48.02367-1.106c19.70054.86087,42.2126,2.05967,55.98343,8.10811,2.72556,1.19713,56.35416,31.092,56.35416,31.092Z"/><polygon class="cls-30" points="838.889 369.181 828.464 369.003 839.932 330.298 846.253 329.77 838.889 369.181"/><path class="cls-31" d="M806.75782,337.70215,791.316,366.63964a35.24344,35.24344,0,0,0,6.35317,1.66413,48.1371,48.1371,0,0,0,4.938.31849l10.69519-33.25232Z"/><path class="cls-32" d="M947.31154,386.17286l12.71817,19.2704a2.21792,2.21792,0,0,0,2.01283,1.07378l44.26858.09742a2.21789,2.21789,0,0,0,1.839-1.15861l6.85909-9.73717a2.21791,2.21791,0,0,0-1.75-3.26539l-63.84585-9.63065A2.21791,2.21791,0,0,0,947.31154,386.17286Z"/><path class="cls-33" d="M1111.7917,405.50961a2.21791,2.21791,0,0,1-1.86306-1.1195l-5.37711-9.57794c-.78851-1.38473-2.00869-4.01883-.42509-4.1961,0,0,2.657,4.51092,3.679,6.5034S1111.7917,405.50961,1111.7917,405.50961Z"/><path class="cls-34" d="M1082.48851,466.9843a25.686,25.686,0,0,1-18.24516,7.7988,24.99336,24.99336,0,0,1-15.03275-5.227"/><path class="cls-35" d="M768.81482,380.63814s.72265-4.36469,8.57446-6.04834c9.3813-1.48492,140.923,7.39761,140.923,7.39761Z"/><path class="cls-36" d="M753.41305,408.85653s3.52729,4.80629,15.34765,1.63632c9.03255-2.42234,22.79027-2.905,24.38665-2.905.67569,0,1.13048,4.47259-1.996,6.39174-2.03144,1.247-13.959,4.37989-17.23127,6.371-1.32037.80343-1.30839,1.22685.00745,2.03768,2.52865,1.55819,14.8235,4.07528,16.75539,3.943,6.8758-.47084,15.83141-3.45007,19.39272-2.80725a8.92357,8.92357,0,0,1,3.51006,1.71319s5.20917-.89147,6.53,2.75082c.29207.80538-2.7217,2.32145-2.7217,2.32145s2.32145,1.521,1.68105,2.32146c-.78136.9767-1.589,1.38838-3.88352,3.01372,0,0,1.34978.87243.92311,1.24924-2.63689,2.32867-7.90073,4.7611-8.91129,5.30141-4.4714,2.39065-8.87318,3.06462-13.99581,4.14224-2.32877.4899-28.86755,1.64573-33.10839-.04352-10.95937-4.36541-24.13874-23.36971-26.52122-28.3103-5.82566-12.08077,19.89376-26.55451,19.89376-26.55451Z"/><path class="cls-37" d="M1155.76417,373.31753l-.06613.073V489.01546s38.97872-7.76016,38.98484-17.052C1194.708,434.47762,1180.09452,400.09931,1155.76417,373.31753Z"/><path class="cls-38" d="M1155.69807,493.3504V373.3905l-.06612-.07294c-24.33054,26.78172-38.944,61.1601-38.91889,98.646.00594,8.63958.79836,11.63918,2.29866,19.892Z"/><path class="cls-39" d="M1192.80476,451.21578s-139.44917,14.95372-179.19794,15.42381c-5.534.06545-5.68459-4.4397-17.14751-8.48148-10.14181-3.576-18.51476-3.49659-27.88188-7.73984-4.92542-2.23119-13.67844-5.6345-15.30377-6.23944a.60348.60348,0,0,0-.71386.228,5.76877,5.76877,0,0,0,.17663,5.87354c1.979,3.10027,12.99212,10.0281,17.0606,12.44489.54663.32472,1.65191,1.06568,1.018,1.11487-4.77388.37045-16.83013.90434-19.76862.69445-3.72489-.26607-15.04852-1.616-19.68357-2.4142-2.49677-.43-8.7193.39808-8.20813,5.609a6.09958,6.09958,0,0,0-3.09236,1.37107c-1.30349,1.238-2.49006,3.54858-1.77794,3.99078a31.751,31.751,0,0,0,6.28037,2.64712,3.58854,3.58854,0,0,0-2.79857,1.58263c-.68633,1.04088-1.23327,2.5614-.5692,2.89344,1.27331.63665,7.34927,3.16286,7.34927,3.16286s-1.20371,1.62038-.72394,1.84829c1.71551.81494,6.87254,3.08611,9.474,3.98508,3.42873,1.18483,23.05435,4.81481,33.214,5.3229,5.60561.28034,47.82751-4.96951,58.204-4.43738s56.04506,3.84883,82.91748,5.44521,104.89833.64461,111.93374-.68571,13.94949-27.84234,9.78867-75.61277c-3.212-36.87642-18.89928-64.65618-18.89928-64.65618s-8.06788,3.28618-23.76,15.10745c-14.67667,11.05628-22.17681,19.87745-22.17681,19.87745a123.70232,123.70232,0,0,1,15.03449,27.17206C1191.43325,436.85088,1192.80476,451.21578,1192.80476,451.21578Z"/><polygon class="cls-40" points="1008.935 411.51 1027.882 436.697 958.261 410.949 1008.935 411.51"/><path class="cls-41" d="M1111.74011,410.38871l-10.31415,23.02,13.58975-6.14951s1.54515-5.211,1.433-7.90166-2.92056-9.14024-2.92056-9.14024Z"/><path class="cls-42" d="M910.55045,165.64345s-4.58757,30.07608,12.29326,60.20864c2.15961,3.855,12.79059,6.5912,15.18936,7.16563a1.73168,1.73168,0,0,1,.86675.50465c1.59912,1.7122,7.8438,9.22379,12.422,26.3809,1.32783,4.97618,8.833.78559,13.96638,3.18729,11.85766,5.54767,8.5748,4.25336,28.04721,13.43944,5.75087,2.713,21.23916-1.27618,31.67674-13.96113,9.21929-11.20435,10.1525-17.37093,11.74888-32.36512s-6.52814-36.30641-6.52814-36.30641,8.14662.43541,8.25214-15.26318c.02923-4.34847-.20844-3.59924-.20844-3.59924s-33.60124,18.74138-57.80926,19.8251C945.4829,196.42618,910.55045,165.64345,910.55045,165.64345Z"/><path class="cls-43" d="M958.2422,227.77382s4.83157-.71689,10.88111-5.12643a26.0527,26.0527,0,0,0,7.67025-8.7162s3.38649,1.84111,3.90643,3.2259c1.36465,3.63456-1.48438,9.21033-7.58572,14.61437s-11.897,4.59671-12.20842,3.04917C959.6969,228.81315,958.2422,227.77382,958.2422,227.77382Z"/><rect class="cls-44" x="716.89336" y="-33.06743" width="107.69943" height="661.91238"/><rect class="cls-45" x="1048.18769" y="-494.13427" width="107.69943" height="1459.7975"/><polygon class="cls-46" points="675.768 658.01 468.374 644.819 1203.625 -94.687 1397.159 -35.453 675.768 658.01"/><polygon class="cls-47" points="1351.586 500.43 1328.44 629.259 614.358 -1.243 614.358 -134.523 1351.586 500.43"/></g></svg>