<svg xmlns="http://www.w3.org/2000/svg" xmlns:xlink="http://www.w3.org/1999/xlink" width="1200" height="1200" viewBox="0 0 1200 1200"><defs><style>.cls-1,.cls-5{fill:none;}.cls-2{isolation:isolate;}.cls-3{clip-path:url(#clip-path);}.cls-4{clip-path:url(#clip-path-2);}.cls-5{stroke:#e73088;stroke-miterlimit:10;stroke-width:7px;}.cls-6{fill:url(#linear-gradient);}.cls-7{fill:url(#linear-gradient-2);}.cls-8{fill:url(#linear-gradient-3);}.cls-9{fill:url(#linear-gradient-4);}.cls-10{fill:url(#linear-gradient-5);}.cls-11{fill:url(#linear-gradient-6);}.cls-12{fill:url(#linear-gradient-7);}.cls-13{fill:url(#linear-gradient-8);}.cls-14{fill:url(#linear-gradient-9);}.cls-15{fill:url(#linear-gradient-10);}.cls-16,.cls-24,.cls-25,.cls-26,.cls-29,.cls-30{mix-blend-mode:multiply;}.cls-16{fill:url(#linear-gradient-11);}.cls-17{fill:url(#linear-gradient-12);}.cls-18{fill:url(#linear-gradient-13);}.cls-19{fill:url(#linear-gradient-14);}.cls-20{fill:url(#linear-gradient-15);}.cls-21{fill:url(#linear-gradient-16);}.cls-22{fill:url(#linear-gradient-17);}.cls-23{fill:url(#linear-gradient-18);}.cls-24{fill:url(#linear-gradient-19);}.cls-25{fill:url(#linear-gradient-20);}.cls-26{fill:url(#linear-gradient-21);}.cls-27{fill:url(#linear-gradient-22);}.cls-28{fill:url(#linear-gradient-23);}.cls-29{fill:url(#linear-gradient-24);}.cls-30{fill:url(#linear-gradient-25);}</style><clipPath id="clip-path"><rect class="cls-1" width="1200" height="1200"/></clipPath><clipPath id="clip-path-2"><rect class="cls-1" x="-236.01957" y="-557.90789" width="1564.94952" height="1759.80716"/></clipPath><linearGradient id="linear-gradient" x1="-2792.30116" y1="-334.47748" x2="-3315.63987" y2="1637.00694" gradientTransform="matrix(1, 0, 0, -1, 3026.31515, 707.25478)" gradientUnits="userSpaceOnUse"><stop offset="0.11521" stop-color="#005aa3"/><stop offset="0.16759" stop-color="#0c63a9"/><stop offset="0.26253" stop-color="#2c7cb8"/><stop offset="0.38823" stop-color="#60a4d1"/><stop offset="0.49547" stop-color="#91cae9"/><stop offset="0.55494" stop-color="#a1d2ec"/><stop offset="0.67172" stop-color="#cce6f5"/><stop offset="0.79405" stop-color="#fff"/></linearGradient><linearGradient id="linear-gradient-2" x1="180.7731" y1="583.65013" x2="351.40439" y2="1264.17908" gradientUnits="userSpaceOnUse"><stop offset="0.1102" stop-color="#ffda8a"/><stop offset="0.86288" stop-color="#fabd5d"/></linearGradient><linearGradient id="linear-gradient-3" x1="2150.00816" y1="19.59779" x2="2475.57179" y2="225.38884" gradientTransform="matrix(-0.54343, 0.83945, 0.83945, 0.54343, 1408.29058, -798.21333)" gradientUnits="userSpaceOnUse"><stop offset="0.32445" stop-color="#fff"/><stop offset="0.41024" stop-color="#fffbf3"/><stop offset="0.5651" stop-color="#fff1d3"/><stop offset="0.63293" stop-color="#ffecc3"/><stop offset="0.72015" stop-color="#fdd89f"/><stop offset="0.81066" stop-color="#fbc680"/><stop offset="0.88762" stop-color="#f9bc6d"/><stop offset="0.94132" stop-color="#f9b866"/></linearGradient><linearGradient id="linear-gradient-4" x1="2376.60423" y1="-877.62568" x2="2636.98218" y2="-322.60954" gradientTransform="matrix(-0.44709, 0.89449, 0.89449, 0.44709, 1975.40582, -891.44923)" gradientUnits="userSpaceOnUse"><stop offset="0.28662" stop-color="#fff"/><stop offset="0.36119" stop-color="#fffefb"/><stop offset="0.43068" stop-color="#fffaf0"/><stop offset="0.49793" stop-color="#fff4dd"/><stop offset="0.56374" stop-color="#ffecc3"/><stop offset="0.66554" stop-color="#fddda9"/><stop offset="0.87982" stop-color="#f9b866"/></linearGradient><linearGradient id="linear-gradient-5" x1="1763.98298" y1="277.51653" x2="2252.52876" y2="351.34123" gradientTransform="matrix(-0.54343, 0.83945, 0.83945, 0.54343, 1408.29058, -798.21333)" gradientUnits="userSpaceOnUse"><stop offset="0.32445" stop-color="#fff"/><stop offset="0.41024" stop-color="#fffbf3"/><stop offset="0.5651" stop-color="#fff1d3"/><stop offset="0.63293" stop-color="#ffecc3"/><stop offset="0.73674" stop-color="#fdd89f"/><stop offset="0.84447" stop-color="#fbc680"/><stop offset="0.93608" stop-color="#f9bc6d"/><stop offset="1" stop-color="#f9b866"/></linearGradient><linearGradient id="linear-gradient-6" x1="2142.84876" y1="-137.74087" x2="2577.40582" y2="-137.74087" gradientTransform="matrix(-0.44709, 0.89449, 0.89449, 0.44709, 1975.40582, -891.44923)" gradientUnits="userSpaceOnUse"><stop offset="0.18826" stop-color="#fff"/><stop offset="0.28566" stop-color="#fffbf3"/><stop offset="0.46147" stop-color="#fff1d3"/><stop offset="0.53849" stop-color="#ffecc3"/><stop offset="0.669" stop-color="#fdd89f"/><stop offset="0.80446" stop-color="#fbc680"/><stop offset="0.91964" stop-color="#f9bc6d"/><stop offset="1" stop-color="#f9b866"/></linearGradient><linearGradient id="linear-gradient-7" x1="2074.80033" y1="-268.72955" x2="2298.6606" y2="-268.72955" gradientTransform="matrix(-0.44709, 0.89449, 0.89449, 0.44709, 1975.40582, -891.44923)" gradientUnits="userSpaceOnUse"><stop offset="0.32445" stop-color="#fff"/><stop offset="0.41024" stop-color="#fffbf3"/><stop offset="0.5651" stop-color="#fff1d3"/><stop offset="0.63293" stop-color="#ffecc3"/></linearGradient><linearGradient id="linear-gradient-8" x1="1816.61818" y1="-122.83858" x2="2195.80427" y2="268.57932" xlink:href="#linear-gradient-5"/><linearGradient id="linear-gradient-9" x1="1637.19652" y1="57.15868" x2="2099.16309" y2="243.91112" gradientTransform="matrix(-0.54343, 0.83945, 0.83945, 0.54343, 1408.29058, -798.21333)" gradientUnits="userSpaceOnUse"><stop offset="0.32445" stop-color="#fff"/><stop offset="0.43327" stop-color="#fffbf3"/><stop offset="0.62971" stop-color="#fff1d3"/><stop offset="0.71576" stop-color="#ffecc3"/><stop offset="0.77048" stop-color="#ffe9be"/><stop offset="0.8316" stop-color="#fee2b1"/><stop offset="0.89579" stop-color="#fcd59b"/><stop offset="0.96172" stop-color="#fac47c"/><stop offset="1" stop-color="#f9b866"/></linearGradient><linearGradient id="linear-gradient-10" x1="-872.90142" y1="478.84539" x2="-523.41061" y2="896.08364" gradientTransform="matrix(-0.86789, 0.49676, 0.49676, 0.86789, -891.7353, 788.97396)" gradientUnits="userSpaceOnUse"><stop offset="0.39947" stop-color="#fff"/><stop offset="0.49157" stop-color="#fffbf3"/><stop offset="0.65782" stop-color="#fff1d3"/><stop offset="0.73064" stop-color="#ffecc3"/><stop offset="0.77532" stop-color="#ffe9bd"/><stop offset="0.83353" stop-color="#fee0ad"/><stop offset="0.8992" stop-color="#fcd192"/><stop offset="0.96989" stop-color="#f9bc6d"/><stop offset="0.98158" stop-color="#f9b866"/></linearGradient><linearGradient id="linear-gradient-11" x1="-4550.44872" y1="1080.83297" x2="-3584.23943" y2="83.9583" gradientTransform="matrix(-0.99938, 0.03518, 0.03518, 0.99938, -2881.61982, 30.6302)" gradientUnits="userSpaceOnUse"><stop offset="0.42594" stop-color="#10a3d9" stop-opacity="0"/><stop offset="0.48121" stop-color="#10a3d9" stop-opacity="0.03603"/><stop offset="0.56616" stop-color="#10a3d9" stop-opacity="0.13513"/><stop offset="0.67023" stop-color="#10a3d9" stop-opacity="0.29726"/><stop offset="0.78941" stop-color="#10a3d9" stop-opacity="0.52258"/><stop offset="0.91958" stop-color="#10a3d9" stop-opacity="0.80709"/><stop offset="1" stop-color="#10a3d9"/></linearGradient><linearGradient id="linear-gradient-12" x1="-2212.76376" y1="259.19577" x2="-1902.26699" y2="455.46296" gradientTransform="matrix(-0.904, 0.42752, 0.42752, 0.904, -1206.3661, 1318.45755)" xlink:href="#linear-gradient-3"/><linearGradient id="linear-gradient-13" x1="-1947.58123" y1="-64.52519" x2="-1722.22609" y2="415.8371" gradientTransform="matrix(-0.85108, 0.52504, 0.52504, 0.85108, -675.14044, 1537.80187)" gradientUnits="userSpaceOnUse"><stop offset="0.32445" stop-color="#fff"/><stop offset="0.46395" stop-color="#fffbf3"/><stop offset="0.71577" stop-color="#fff1d3"/><stop offset="0.82608" stop-color="#ffecc3"/><stop offset="0.87783" stop-color="#ffebc0"/><stop offset="0.91098" stop-color="#fee6b8"/><stop offset="0.9389" stop-color="#fddda9"/><stop offset="0.96392" stop-color="#fcd294"/><stop offset="0.98679" stop-color="#fac379"/><stop offset="1" stop-color="#f9b866"/></linearGradient><linearGradient id="linear-gradient-14" x1="-2672.13631" y1="524.20811" x2="-2139.55444" y2="604.68715" gradientTransform="matrix(-0.904, 0.42752, 0.42752, 0.904, -1206.3661, 1318.45755)" xlink:href="#linear-gradient-13"/><linearGradient id="linear-gradient-15" x1="-4121.39453" y1="1459.73885" x2="-3774.20525" y2="878.92689" gradientTransform="matrix(-0.99938, 0.03518, 0.03518, 0.99938, -2881.61982, 30.6302)" gradientUnits="userSpaceOnUse"><stop offset="0.45625" stop-color="#fff"/><stop offset="0.79536" stop-color="#ffecc3"/><stop offset="0.83222" stop-color="#fdd89f"/><stop offset="0.87048" stop-color="#fbc680"/><stop offset="0.90301" stop-color="#f9bc6d"/><stop offset="0.92571" stop-color="#f9b866"/></linearGradient><linearGradient id="linear-gradient-16" x1="-2113.58986" y1="568.98655" x2="-1564.72793" y2="568.98655" gradientTransform="matrix(-0.85108, 0.52504, 0.52504, 0.85108, -675.14044, 1537.80187)" gradientUnits="userSpaceOnUse"><stop offset="0.32445" stop-color="#fff"/><stop offset="0.46395" stop-color="#fffbf3"/><stop offset="0.71577" stop-color="#fff1d3"/><stop offset="0.82608" stop-color="#ffecc3"/></linearGradient><linearGradient id="linear-gradient-17" x1="-2552.28953" y1="251.46386" x2="-2278.03166" y2="534.56876" gradientTransform="matrix(-0.904, 0.42752, 0.42752, 0.904, -1206.3661, 1318.45755)" gradientUnits="userSpaceOnUse"><stop offset="0.32445" stop-color="#fff"/><stop offset="0.46189" stop-color="#fffbf3"/><stop offset="0.70999" stop-color="#fff1d3"/><stop offset="0.81867" stop-color="#ffecc3"/><stop offset="0.86992" stop-color="#ffeac0"/><stop offset="0.90486" stop-color="#fee5b7"/><stop offset="0.93494" stop-color="#fddda8"/><stop offset="0.96227" stop-color="#fcd192"/><stop offset="0.98749" stop-color="#fac177"/><stop offset="1" stop-color="#f9b866"/></linearGradient><linearGradient id="linear-gradient-18" x1="-590.20251" y1="599.70035" x2="-357.97473" y2="890.59619" gradientTransform="matrix(-0.86789, 0.49676, 0.49676, 0.86789, -891.7353, 788.97396)" gradientUnits="userSpaceOnUse"><stop offset="0.13754" stop-color="#fff"/><stop offset="0.31323" stop-color="#fffbf3"/><stop offset="0.63037" stop-color="#fff1d3"/><stop offset="0.76929" stop-color="#ffecc3"/><stop offset="0.80055" stop-color="#fdd89f"/><stop offset="0.83299" stop-color="#fbc680"/><stop offset="0.86057" stop-color="#f9bc6d"/><stop offset="0.87982" stop-color="#f9b866"/></linearGradient><linearGradient id="linear-gradient-19" x1="3291.78969" y1="1964.26233" x2="3691.746" y2="3018.75518" gradientTransform="matrix(0.61046, 0.79205, 0.79205, -0.61046, -4071.40453, -862.1842)" gradientUnits="userSpaceOnUse"><stop offset="0.42594" stop-color="#10a3d9" stop-opacity="0"/><stop offset="0.47762" stop-color="#10a3d9" stop-opacity="0.02785"/><stop offset="0.54709" stop-color="#10a3d9" stop-opacity="0.1066"/><stop offset="0.62672" stop-color="#10a3d9" stop-opacity="0.23626"/><stop offset="0.71387" stop-color="#10a3d9" stop-opacity="0.41695"/><stop offset="0.80611" stop-color="#10a3d9" stop-opacity="0.64601"/><stop offset="0.85475" stop-color="#10a3d9" stop-opacity="0.78093"/><stop offset="1" stop-color="#10a3d9"/></linearGradient><linearGradient id="linear-gradient-20" x1="3882.10447" y1="2451.20661" x2="4029.86405" y2="3677.36378" gradientTransform="matrix(0.61046, 0.79205, 0.79205, -0.61046, -4071.40453, -862.1842)" gradientUnits="userSpaceOnUse"><stop offset="0.42594" stop-color="#10a3d9" stop-opacity="0"/><stop offset="0.47875" stop-color="#10a3d9" stop-opacity="0.02629"/><stop offset="0.54732" stop-color="#10a3d9" stop-opacity="0.10117"/><stop offset="0.62459" stop-color="#10a3d9" stop-opacity="0.22464"/><stop offset="0.70825" stop-color="#10a3d9" stop-opacity="0.39686"/><stop offset="0.79605" stop-color="#10a3d9" stop-opacity="0.6153"/><stop offset="0.85475" stop-color="#10a3d9" stop-opacity="0.78093"/><stop offset="1" stop-color="#10a3d9"/></linearGradient><linearGradient id="linear-gradient-21" x1="3219.47623" y1="905.17385" x2="3696.88698" y2="3353.04946" gradientTransform="matrix(0.61046, 0.79205, 0.79205, -0.61046, -4071.40453, -862.1842)" gradientUnits="userSpaceOnUse"><stop offset="0.42594" stop-color="#10a3d9" stop-opacity="0"/><stop offset="0.4851" stop-color="#10a3d9" stop-opacity="0.02786"/><stop offset="0.56465" stop-color="#10a3d9" stop-opacity="0.10669"/><stop offset="0.6558" stop-color="#10a3d9" stop-opacity="0.23645"/><stop offset="0.75563" stop-color="#10a3d9" stop-opacity="0.41738"/><stop offset="0.86247" stop-color="#10a3d9" stop-opacity="0.64954"/><stop offset="0.97361" stop-color="#10a3d9" stop-opacity="0.92853"/><stop offset="1" stop-color="#10a3d9"/></linearGradient><linearGradient id="linear-gradient-22" x1="4306.03491" y1="2983.54342" x2="4679.60435" y2="3896.27233" gradientTransform="matrix(0.61046, 0.79205, 0.79205, -0.61046, -4071.40453, -862.1842)" gradientUnits="userSpaceOnUse"><stop offset="0.42594" stop-color="#fff" stop-opacity="0"/><stop offset="0.46792" stop-color="#fff" stop-opacity="0.0237"/><stop offset="0.52442" stop-color="#fff" stop-opacity="0.09081"/><stop offset="0.58917" stop-color="#fff" stop-opacity="0.20133"/><stop offset="0.66008" stop-color="#fff" stop-opacity="0.35543"/><stop offset="0.73601" stop-color="#fff" stop-opacity="0.55329"/><stop offset="0.81487" stop-color="#fff" stop-opacity="0.79066"/><stop offset="0.87739" stop-color="#fff"/></linearGradient><linearGradient id="linear-gradient-23" x1="980.84544" y1="1046.64305" x2="955.3588" y2="1275.25054" gradientTransform="matrix(1, 0, 0, 1, 0, 0)" xlink:href="#linear-gradient-9"/><linearGradient id="linear-gradient-24" x1="1951.37181" y1="-3635.16335" x2="1217.04916" y2="-4675.98504" gradientTransform="matrix(0.54688, 0.83721, 0.83721, -0.54688, 3337.91528, -3295.90393)" gradientUnits="userSpaceOnUse"><stop offset="0.42594" stop-color="#10a3d9" stop-opacity="0"/><stop offset="0.48385" stop-color="#10a3d9" stop-opacity="0.13681"/><stop offset="0.62281" stop-color="#10a3d9" stop-opacity="0.44069"/><stop offset="0.74893" stop-color="#10a3d9" stop-opacity="0.68151"/><stop offset="0.85777" stop-color="#10a3d9" stop-opacity="0.85491"/><stop offset="0.9451" stop-color="#10a3d9" stop-opacity="0.96113"/><stop offset="1" stop-color="#10a3d9"/></linearGradient><linearGradient id="linear-gradient-25" x1="-4233.37936" y1="1272.36938" x2="-4055.4877" y2="160.55336" gradientTransform="matrix(-0.99938, 0.03518, 0.03518, 0.99938, -2881.61982, 30.6302)" xlink:href="#linear-gradient-21"/></defs><g class="cls-2"><g id="kihvad"><g class="cls-3"><g class="cls-4"><line class="cls-5" x1="53.35754" y1="294.12292" x2="-787.56026" y2="407.52803"/><polygon class="cls-1" points="1340.494 1189.149 183.955 1230.465 151.355 290.622 1307.894 249.307 1340.494 1189.149"/><rect class="cls-6" x="-1519.15027" y="-570.8801" width="3141.00795" height="1849.01498" transform="translate(102.70741 707.25478) rotate(-180)"/><path class="cls-7" d="M1345.889,497.39842s-404.1236-110.36837-870.1574,245.21467c-109.81085,70.302-297.064,193.881-420.59261,229.53165-244.63856,70.6033-408.17475,25.93161-510.87765-20.2883-281.30923-126.599-375.74876-123.35289-375.74876-123.35289l-2.42932,441.34241,2180.56641,6.62266Z"/><path class="cls-8" d="M119.80056,1281.3198c132.26387,33.733,251.92347-22.19375,269.946-28.84813,2.38386.10875-160.57787-30.44927-261.04395-187.64429C125.92633,1105.92131,113.56818,1212.93037,119.80056,1281.3198Z"/><path class="cls-9" d="M103.35843,754.6034s77.38,18.54326,171.39367,104.1183c111.439,101.43633,138.74325,161.867,161.8991,226.84858,34.78726,97.62255,23.37359,141.63087,23.37359,141.63087S445.014,1269.28,396.20546,1249.10837c-34.33015-14.188-151.147-70.269-226.53867-164.92584C67.80449,943.78517,103.35843,754.6034,103.35843,754.6034Z"/><path class="cls-10" d="M512.53363,951.50586C595.8465,817.77829,658.03338,789.16555,658.03338,789.16555s110.85505,249.16375-29.92423,394.02865c-71.87414,73.96-139.9646,39.30336-139.9646,39.30336S438.06859,1071.03156,512.53363,951.50586Z"/><path class="cls-11" d="M814.43716,975.96558c93.25766-71.76023,206.65422-54.2902,206.65422-54.2902s-9.06206,90.11775-53.86838,164.4837c-33.03631,54.831-97.05264,117.01965-97.05264,117.01965s-137.41116.97517-236.38563,10.7268C709.93742,1090.05974,748.85456,1026.4303,814.43716,975.96558Z"/><path class="cls-12" d="M682.2697,815.2807l37.32109-14.88249s70.20605,96.02823,193.82084,111.20656c-54.753,1.95594-104.01928,28.52354-148.70193,76.79415-30.2689,33.39935-51.16884,59.24119-51.16884,59.24119s14.33259-40.8454,3.36391-108.56677C707.6216,881.75845,682.2697,815.2807,682.2697,815.2807Z"/><path class="cls-13" d="M253.25743,812.4117c9.14826-94.09919,67.234-168.95276,67.234-168.95276S427.42776,700.238,459.85871,842.12435c22.89983,100.18738-16.89637,230.83177-16.89637,230.83177S406.21444,928.012,253.25743,812.4117Z"/><path class="cls-14" d="M446.16564,747.04589c34.593-70.94317,114.79488-128.9723,114.79488-128.9723s57.334,82.39365,63.88081,171.7334c-2.218,4.114-119.61087,93.0083-151.16647,211.34169C500.93792,851.6322,456.40189,764.43634,446.16564,747.04589Z"/><path class="cls-15" d="M77.17344,812.86944S2.40183,900.33238-16.994,999.29275c-12.04416,61.45068-15.37716,86.37875-15.37716,86.37875s64.3141,52.58062,94.65272,131.9783c20.22452,52.92874,26.5714,83.493,26.5714,83.493s23.63421-232.29313,25.79622-248.38308C71.40793,928.42634,77.17344,812.86944,77.17344,812.86944Z"/><polygon class="cls-16" points="527.129 1210.144 1612.959 1200.892 1717.459 -427.539 1046.592 -471.534 527.129 1210.144"/><path class="cls-17" d="M738.22729,798.35279c105.25831,115.1424,237.97676,104.676,253.83144,108.0312,1.66381,1.15379-137.20574-85.60526-148.54352-266.68013-70.10854-81.99038-169.20337-106.85562-169.20337-106.85562S653.78005,705.97568,738.22729,798.35279Z"/><path class="cls-18" d="M922.67,390.31549s121.02861,76.95023,148.33207,187.78327c35.3137,143.34908-20.89995,261.1001-42.52059,321.07267C973.21218,876.30314,873.08389,772.49787,860.432,670.52021,841.99363,503.06514,922.67,390.31549,922.67,390.31549Z"/><path class="cls-19" d="M1202.16725,673.17723c132.60658-83.3765,240.26566-68.66993,240.26566-68.66993s-23.33966,295.23315-293.79418,322.56479c-64.55385,6.5237-108.40341-12.51617-108.40341-12.51617S1080.39538,749.74141,1202.16725,673.17723Z"/><path class="cls-20" d="M1021.99528,1084.20876c52.504,215.633,153.91146,241.15569,269.53727,273.53343,1.44138-28.52354,58.12-241.13156-127.34076-366.06758-78.85473-53.12064-131.2912-67.50528-131.2912-67.50528S1005.77876,1017.60784,1021.99528,1084.20876Z"/><path class="cls-21" d="M1336.42045,866.97446s113.81738,55.85889,163.59732,180.14375c-32.0986,17.663-101.3686,47.486-225.668,38.724-58.44053-102.3336-129.63106-129.19672-187.90888-148.88983C1232.72859,963.4556,1336.42045,866.97446,1336.42045,866.97446Z"/><path class="cls-22" d="M1076.76756,542.2615c46.124-68.01768,118.9135-103.85494,118.9135-103.85494s49.72747,62.16669,56.93435,185.76869c-118.91351,40.95688-155.66859,121.40789-155.66859,121.40789S1116.21891,657.28631,1076.76756,542.2615Z"/><path class="cls-23" d="M-289.405,1031.93832s23.91016,92.91824,77.17835,157.49575c105.66176,128.09471,289.80784,124.7074,289.80784,124.7074S51.47955,1144.79072-93.8151,1071.14C-203.81867,1015.37858-289.405,1031.93832-289.405,1031.93832Z"/><polygon class="cls-24" points="484.677 1221.922 -22.89 -576.49 -373.257 79.303 170.4 1233.382 484.677 1221.922"/><polygon class="cls-25" points="1110.783 1218.526 701.092 -578.525 299.141 79.303 842.798 1233.382 1110.783 1218.526"/><polygon class="cls-26" points="428.148 1221.922 -373.257 71.989 -1269.792 79.303 -904.866 1233.382 428.148 1221.922"/><polygon class="cls-27" points="1582.69 1221.922 1370.808 77.108 814.437 79.303 1358.094 1233.382 1582.69 1221.922"/><path class="cls-28" d="M1000.37464,1045.446c-15.85513,73.86865-104.21506,159.13256-104.21506,159.13256l133.97909,1.59024S1001.816,1128.09112,1000.37464,1045.446Z"/><polygon class="cls-29" points="1348.271 1196.595 1182.922 -571.719 18.053 -575.865 1070.948 1206.501 1348.271 1196.595"/><polygon class="cls-30" points="939.837 1193.915 1646.832 1200.863 1646.832 88.079 1314.595 85.885 939.837 1193.915"/></g></g></g></g></svg>