<svg xmlns="http://www.w3.org/2000/svg" xmlns:xlink="http://www.w3.org/1999/xlink" width="1440" height="612" viewBox="0 0 1440 612"><defs><style>.cls-1{fill:none;}.cls-2{isolation:isolate;}.cls-3{clip-path:url(#clip-path);}.cls-4{fill:url(#linear-gradient);}.cls-5{fill:url(#linear-gradient-2);}.cls-6{fill:url(#linear-gradient-3);}.cls-7,.cls-8{fill:#00a099;mix-blend-mode:multiply;}.cls-13,.cls-7{opacity:0.5;}.cls-12,.cls-14,.cls-16,.cls-8{opacity:0.3;}.cls-9{fill:#fff;}.cls-10{fill:#e5f3fd;}.cls-11{fill:url(#linear-gradient-4);}.cls-12,.cls-13,.cls-14,.cls-16{mix-blend-mode:soft-light;}.cls-14{fill:url(#New_Gradient_Swatch_39);}.cls-15{opacity:0.6;}.cls-16{fill:url(#New_Gradient_Swatch_39-2);}</style><clipPath id="clip-path"><rect class="cls-1" width="1440" height="612"/></clipPath><linearGradient id="linear-gradient" x1="721.27368" y1="611.8013" x2="719.11524" y2="-18.93233" gradientUnits="userSpaceOnUse"><stop offset="0.14224" stop-color="#f9c299"/><stop offset="0.17102" stop-color="#f8bf98"/><stop offset="0.46655" stop-color="#f4a98d"/><stop offset="0.74842" stop-color="#f19c86"/><stop offset="1" stop-color="#f09784"/></linearGradient><linearGradient id="linear-gradient-2" x1="711.5468" y1="247.0257" x2="710.70101" y2="-0.12684" gradientUnits="userSpaceOnUse"><stop offset="0" stop-color="#f9c299" stop-opacity="0"/><stop offset="1" stop-color="#f9c299"/></linearGradient><linearGradient id="linear-gradient-3" x1="699.19833" y1="560.76765" x2="699.19833" y2="495.10851" gradientUnits="userSpaceOnUse"><stop offset="0" stop-color="#84cde3"/><stop offset="0.21591" stop-color="#77cae0"/><stop offset="0.61153" stop-color="#56c2d7"/><stop offset="1" stop-color="#2fb8cd"/></linearGradient><linearGradient id="linear-gradient-4" x1="700.5285" y1="567.67626" x2="700.5285" y2="857.46267" gradientUnits="userSpaceOnUse"><stop offset="0" stop-color="#f7d596"/><stop offset="1" stop-color="#f8b86c"/></linearGradient><linearGradient id="New_Gradient_Swatch_39" x1="1001.07476" y1="338.96522" x2="1001.07476" y2="258.79149" gradientTransform="matrix(-1, 0, 0, 1, 2075.02434, 0)" gradientUnits="userSpaceOnUse"><stop offset="0" stop-color="#fff"/><stop offset="0.13912" stop-color="#f6fafc"/><stop offset="0.36507" stop-color="#deecf5"/><stop offset="0.64963" stop-color="#b7d6e9"/><stop offset="0.97891" stop-color="#81b8d8"/><stop offset="1" stop-color="#7db6d7"/></linearGradient><linearGradient id="New_Gradient_Swatch_39-2" x1="1979.21384" y1="76.30726" x2="1979.21384" y2="-3.86647" gradientTransform="translate(-1330.28346)" xlink:href="#New_Gradient_Swatch_39"/></defs><title>vl-palm-bg</title><g class="cls-2"><g id="Layer_1" data-name="Layer 1"><g class="cls-3"><rect class="cls-4" x="-25.89474" y="-112.24829" width="1491.78948" height="703.71681"/><rect class="cls-5" x="-45.2883" y="-35.10458" width="1512.67202" height="272.57483"/><g id="meri"><rect class="cls-6" x="-53.67457" y="484.12556" width="1505.74581" height="86.87282"/><path class="cls-7" d="M189.16077,506.90943s41.13141,2.3528,121.12385,4.07609c81.66459,1.75931,142.44069,1.89008,142.44069,1.89008s-96.89211-6.119-142.21478-6.119C254.38423,506.75657,189.16077,506.90943,189.16077,506.90943Z"/><path class="cls-7" d="M49.26643,510.81315s29.18528,1.66946,85.94489,2.89224c57.94609,1.24834,101.07051,1.34113,101.07051,1.34113s-68.751-4.34184-100.91021-4.34184C95.54652,510.70468,49.26643,510.81315,49.26643,510.81315Z"/><path class="cls-7" d="M996.3017,515.68542s41.13141,2.35281,121.12386,4.07609c81.66458,1.75932,142.44068,1.89008,142.44068,1.89008s-96.89211-6.119-142.21478-6.119C1061.52516,515.53256,996.3017,515.68542,996.3017,515.68542Z"/><path class="cls-7" d="M856.40736,519.58914s29.18528,1.66946,85.94489,2.89224c57.94609,1.24834,101.07051,1.34113,101.07051,1.34113s-68.751-4.34183-100.91021-4.34183C902.68745,519.48068,856.40736,519.58914,856.40736,519.58914Z"/><path class="cls-7" d="M718.34608,502.533s24.38749,1.049,71.81634,1.81734c48.42029.78439,84.45545.8427,84.45545.8427s-57.44894-2.72819-84.32151-2.72819C757.01815,502.46487,718.34608,502.533,718.34608,502.533Z"/><path class="cls-7" d="M629.12091,510.553s17.30444.74434,50.95815,1.28952c34.35721.55657,59.92639.59794,59.92639.59794s-40.76359-1.93582-59.83134-1.93582C656.56114,510.50463,629.12091,510.553,629.12091,510.553Z"/><path class="cls-8" d="M534.92,502.76766s8.96089.70453,26.38807,1.22055c17.79146.52681,31.03216.566,31.03216.566s-21.10894-1.83229-30.983-1.83229C549.12954,502.72189,534.92,502.76766,534.92,502.76766Z"/><g id="paat"><polygon class="cls-9" points="708.837 502.566 718.7 454.518 736.157 502.566 708.837 502.566"/><polygon class="cls-10" points="737.078 506.915 689.332 505.254 693.859 510.767 739.137 510.767 737.078 506.915"/></g></g><path class="cls-11" d="M-52.34441,534.44513s140.91285,6.89926,293.01231,4.04431c121.61008-2.28265,250.37142-4.26853,319.97791-4.02385,114.37787.40205,305.38646,4.53539,481.43825,8.977,217.02287,5.47525,411.31734.08787,411.31734.08787V907.38039H-52.34441Z"/><g id="pilv3" class="cls-12"><ellipse class="cls-10" cx="531.27956" cy="428.88973" rx="101.35313" ry="6.84285"/><ellipse class="cls-10" cx="568.43011" cy="424.34704" rx="39.31364" ry="8.62063"/><ellipse class="cls-10" cx="516.8213" cy="420.17367" rx="58.34594" ry="12.794"/></g><g id="pilv2" class="cls-13"><ellipse class="cls-10" cx="1205.45556" cy="440.29527" rx="68.12126" ry="3.74701"/><ellipse class="cls-10" cx="1180.48601" cy="437.80778" rx="26.4234" ry="4.72049"/><ellipse class="cls-10" cx="1215.17322" cy="435.52253" rx="39.21536" ry="7.00574"/></g><g id="pilv1"><g id="pilv4" class="cls-12"><ellipse class="cls-10" cx="954.19423" cy="307.24277" rx="92.83326" ry="10.85053"/><ellipse class="cls-10" cx="1006.38568" cy="297.31497" rx="36.00889" ry="13.66951"/><ellipse class="cls-10" cx="959.11518" cy="293.42194" rx="53.44131" ry="20.28711"/></g><path id="pilv" class="cls-14" d="M973.94921,317.69832c-.00054-.028-.00762-.0558-.00762-.08411,0-7.48642,20.81957-13.62058,47.27981-14.20553,10.72825-8.08525,38.75279-13.85249,71.63817-13.85249,42.14541,0,76.31091,9.47207,76.31091,21.15681,0,2.17688-1.18894,4.27671-3.39153,6.25311,25.10362,2.05888,40.73109,4.95366,40.73109,8.16011,0,6.24957-59.34943,11.31564-132.5606,11.31564-73.2109,0-132.56033-5.06607-132.56033-11.31564C941.38911,322.28356,953.67131,319.686,973.94921,317.69832Z"/></g><g id="pilv1-2" data-name="pilv1" class="cls-15"><g id="pilv4-2" data-name="pilv4" class="cls-12"><ellipse class="cls-10" cx="741.50653" cy="45.06793" rx="92.83326" ry="10.85053"/><ellipse class="cls-10" cx="689.31508" cy="35.14013" rx="36.00889" ry="13.66951"/><ellipse class="cls-10" cx="736.58558" cy="31.2471" rx="53.44131" ry="20.28711"/></g><path id="pilv-2" data-name="pilv" class="cls-16" d="M742.84867,55.04036c.00047-.028.00664-.0558.00664-.08411,0-7.48642-18.14277-13.62058-41.201-14.20553-9.34891-8.08524-33.7703-13.85249-62.42756-13.85249-36.72672,0-66.49953,9.47208-66.49953,21.15682,0,2.17687-44.50008-3.73893-46.041,7.71064C524.58568,71.37307,591.90728,73.7839,655.7056,73.7839c63.79808,0,115.51688-5.06607,115.51688-11.31564C771.22248,59.6256,760.51941,57.02805,742.84867,55.04036Z"/></g></g></g></g></svg>