<svg xmlns="http://www.w3.org/2000/svg" xmlns:xlink="http://www.w3.org/1999/xlink" width="1440" height="612" viewBox="0 0 1440 612"><defs><style>.cls-1{fill:none;}.cls-2{isolation:isolate;}.cls-3{clip-path:url(#clip-path);}.cls-21,.cls-4{opacity:0.08;}.cls-10,.cls-11,.cls-12,.cls-13,.cls-14,.cls-15,.cls-16,.cls-17,.cls-18,.cls-19,.cls-20,.cls-21,.cls-23,.cls-24,.cls-25,.cls-26,.cls-27,.cls-28,.cls-29,.cls-30,.cls-31,.cls-32,.cls-33,.cls-34,.cls-35,.cls-36,.cls-37,.cls-39,.cls-4,.cls-40,.cls-41,.cls-42,.cls-43,.cls-44,.cls-45,.cls-46,.cls-47,.cls-48,.cls-49,.cls-50,.cls-51,.cls-52,.cls-53,.cls-55,.cls-56,.cls-57,.cls-58,.cls-59,.cls-6,.cls-60,.cls-61,.cls-62,.cls-63,.cls-64,.cls-65,.cls-66,.cls-67,.cls-68,.cls-71,.cls-72,.cls-73,.cls-74,.cls-75,.cls-76,.cls-77,.cls-78,.cls-79,.cls-8,.cls-80,.cls-81,.cls-82,.cls-83,.cls-84,.cls-85,.cls-86,.cls-87,.cls-88,.cls-89,.cls-9,.cls-90,.cls-91,.cls-92,.cls-93,.cls-94,.cls-95,.cls-96{mix-blend-mode:multiply;}.cls-4{fill:url(#linear-gradient);}.cls-5{fill:url(#linear-gradient-2);}.cls-6{fill:url(#linear-gradient-3);}.cls-7{fill:#fff;opacity:0.5;}.cls-10,.cls-11,.cls-12,.cls-13,.cls-15,.cls-16,.cls-17,.cls-18,.cls-19,.cls-20,.cls-24,.cls-25,.cls-26,.cls-27,.cls-28,.cls-29,.cls-31,.cls-32,.cls-33,.cls-34,.cls-35,.cls-36,.cls-40,.cls-41,.cls-42,.cls-43,.cls-44,.cls-45,.cls-47,.cls-48,.cls-49,.cls-50,.cls-51,.cls-52,.cls-56,.cls-57,.cls-58,.cls-59,.cls-60,.cls-61,.cls-63,.cls-64,.cls-65,.cls-66,.cls-67,.cls-68,.cls-69,.cls-72,.cls-73,.cls-74,.cls-75,.cls-76,.cls-77,.cls-79,.cls-8,.cls-80,.cls-81,.cls-82,.cls-83,.cls-84,.cls-85,.cls-86,.cls-87,.cls-88,.cls-89,.cls-9,.cls-90,.cls-91,.cls-92,.cls-93,.cls-94,.cls-95,.cls-96{opacity:0.88;}.cls-8{fill:url(#New_Gradient_Swatch_38);}.cls-9{fill:url(#New_Gradient_Swatch_38-2);}.cls-10{fill:url(#New_Gradient_Swatch_38-3);}.cls-11{fill:url(#New_Gradient_Swatch_38-4);}.cls-12{fill:url(#New_Gradient_Swatch_38-5);}.cls-13{fill:url(#New_Gradient_Swatch_38-6);}.cls-14{fill:url(#linear-gradient-4);}.cls-15{fill:url(#New_Gradient_Swatch_38-7);}.cls-16{fill:url(#New_Gradient_Swatch_38-8);}.cls-17{fill:url(#New_Gradient_Swatch_38-9);}.cls-18{fill:url(#New_Gradient_Swatch_38-10);}.cls-19{fill:url(#New_Gradient_Swatch_38-11);}.cls-20{fill:url(#New_Gradient_Swatch_38-12);}.cls-21{fill:url(#linear-gradient-5);}.cls-22{fill:url(#linear-gradient-6);}.cls-23{fill:url(#linear-gradient-7);}.cls-24{fill:url(#New_Gradient_Swatch_38-13);}.cls-25{fill:url(#New_Gradient_Swatch_38-14);}.cls-26{fill:url(#New_Gradient_Swatch_38-15);}.cls-27{fill:url(#New_Gradient_Swatch_38-16);}.cls-28{fill:url(#New_Gradient_Swatch_38-17);}.cls-29{fill:url(#New_Gradient_Swatch_38-18);}.cls-30{fill:url(#linear-gradient-8);}.cls-31{fill:url(#New_Gradient_Swatch_38-19);}.cls-32{fill:url(#New_Gradient_Swatch_38-20);}.cls-33{fill:url(#New_Gradient_Swatch_38-21);}.cls-34{fill:url(#New_Gradient_Swatch_38-22);}.cls-35{fill:url(#New_Gradient_Swatch_38-23);}.cls-36{fill:url(#New_Gradient_Swatch_38-24);}.cls-37{opacity:0.16;fill:url(#linear-gradient-9);}.cls-38{fill:url(#linear-gradient-10);}.cls-39{fill:url(#linear-gradient-11);}.cls-40{fill:url(#New_Gradient_Swatch_38-25);}.cls-41{fill:url(#New_Gradient_Swatch_38-26);}.cls-42{fill:url(#New_Gradient_Swatch_38-27);}.cls-43{fill:url(#New_Gradient_Swatch_38-28);}.cls-44{fill:url(#New_Gradient_Swatch_38-29);}.cls-45{fill:url(#New_Gradient_Swatch_38-30);}.cls-46{fill:url(#linear-gradient-12);}.cls-47{fill:url(#New_Gradient_Swatch_38-31);}.cls-48{fill:url(#New_Gradient_Swatch_38-32);}.cls-49{fill:url(#New_Gradient_Swatch_38-33);}.cls-50{fill:url(#New_Gradient_Swatch_38-34);}.cls-51{fill:url(#New_Gradient_Swatch_38-35);}.cls-52{fill:url(#New_Gradient_Swatch_38-36);}.cls-53{opacity:0.1;fill:url(#linear-gradient-13);}.cls-54{fill:url(#linear-gradient-14);}.cls-55{fill:url(#linear-gradient-15);}.cls-56{fill:url(#New_Gradient_Swatch_38-37);}.cls-57{fill:url(#New_Gradient_Swatch_38-38);}.cls-58{fill:url(#New_Gradient_Swatch_38-39);}.cls-59{fill:url(#New_Gradient_Swatch_38-40);}.cls-60{fill:url(#New_Gradient_Swatch_38-41);}.cls-61{fill:url(#New_Gradient_Swatch_38-42);}.cls-62{fill:url(#linear-gradient-16);}.cls-63{fill:url(#New_Gradient_Swatch_38-43);}.cls-64{fill:url(#New_Gradient_Swatch_38-44);}.cls-65{fill:url(#New_Gradient_Swatch_38-45);}.cls-66{fill:url(#New_Gradient_Swatch_38-46);}.cls-67{fill:url(#New_Gradient_Swatch_38-47);}.cls-68{fill:url(#New_Gradient_Swatch_38-48);}.cls-69,.cls-75{fill:url(#New_Gradient_Swatch_38-49);}.cls-70{fill:url(#linear-gradient-17);}.cls-71{fill:url(#linear-gradient-18);}.cls-72{fill:url(#New_Gradient_Swatch_38-50);}.cls-73{fill:url(#New_Gradient_Swatch_38-51);}.cls-74{fill:url(#New_Gradient_Swatch_38-52);}.cls-76{fill:url(#New_Gradient_Swatch_38-54);}.cls-77{fill:url(#New_Gradient_Swatch_38-55);}.cls-78{fill:url(#linear-gradient-19);}.cls-79{fill:url(#New_Gradient_Swatch_38-56);}.cls-80{fill:url(#New_Gradient_Swatch_38-57);}.cls-81{fill:url(#New_Gradient_Swatch_38-58);}.cls-82{fill:url(#New_Gradient_Swatch_38-59);}.cls-83{fill:url(#New_Gradient_Swatch_38-60);}.cls-84{fill:url(#New_Gradient_Swatch_38-61);}.cls-85{fill:url(#New_Gradient_Swatch_38-62);}.cls-86{fill:url(#New_Gradient_Swatch_38-63);}.cls-87{fill:url(#New_Gradient_Swatch_38-64);}.cls-88{fill:url(#New_Gradient_Swatch_38-65);}.cls-89{fill:url(#New_Gradient_Swatch_38-66);}.cls-90{fill:url(#New_Gradient_Swatch_38-67);}.cls-91{fill:url(#New_Gradient_Swatch_38-68);}.cls-92{fill:url(#New_Gradient_Swatch_38-69);}.cls-93{fill:url(#New_Gradient_Swatch_38-70);}.cls-94{fill:url(#New_Gradient_Swatch_38-71);}.cls-95{fill:url(#New_Gradient_Swatch_38-72);}.cls-96{fill:url(#New_Gradient_Swatch_38-73);}.cls-101,.cls-97{opacity:0.7;}.cls-100,.cls-101,.cls-97,.cls-98,.cls-99{mix-blend-mode:soft-light;}.cls-97{fill:url(#linear-gradient-20);}.cls-98{fill:url(#linear-gradient-21);}.cls-99{fill:url(#linear-gradient-22);}.cls-100{fill:url(#linear-gradient-23);}.cls-101{fill:url(#linear-gradient-24);}</style><clipPath id="clip-path"><rect class="cls-1" width="1440" height="612"/></clipPath><linearGradient id="linear-gradient" x1="-1612.67803" y1="933.78476" x2="-1427.08357" y2="936.14259" gradientTransform="matrix(0.7593, 0.0366, -0.4325, 0.37402, 2660.52866, 256.97374)" gradientUnits="userSpaceOnUse"><stop offset="0" stop-color="#8f5335" stop-opacity="0"/><stop offset="0.24962" stop-color="#824b2f" stop-opacity="0.17906"/><stop offset="0.70717" stop-color="#60361e" stop-opacity="0.65088"/><stop offset="1" stop-color="#472712"/></linearGradient><linearGradient id="linear-gradient-2" x1="-7306.17263" y1="2885.03516" x2="-7274.07367" y2="2882.36025" gradientTransform="matrix(0.80895, 0.24448, -0.16833, 0.96768, 7638.58198, -543.61342)" gradientUnits="userSpaceOnUse"><stop offset="0" stop-color="#391d09"/><stop offset="0.13454" stop-color="#462710"/><stop offset="0.38226" stop-color="#674223"/><stop offset="0.71292" stop-color="#9e6e40"/><stop offset="1" stop-color="#d2985d"/></linearGradient><linearGradient id="linear-gradient-3" x1="-5729.92366" y1="565.98017" x2="-5626.81701" y2="565.98017" gradientTransform="translate(6986.32951 -23.02975) rotate(1.97525)" gradientUnits="userSpaceOnUse"><stop offset="0" stop-color="#84cde3"/><stop offset="0.21591" stop-color="#77cae0"/><stop offset="0.61153" stop-color="#56c2d7"/><stop offset="1" stop-color="#2fb8cd"/></linearGradient><linearGradient id="New_Gradient_Swatch_38" x1="-5622.61813" y1="1171.01225" x2="-5679.55181" y2="1208.20892" gradientTransform="translate(7023.92916 -255.22062) rotate(5.89831)" gradientUnits="userSpaceOnUse"><stop offset="0" stop-color="#a1cd95"/><stop offset="0.12915" stop-color="#94c593"/><stop offset="0.36698" stop-color="#73af8f"/><stop offset="0.6842" stop-color="#3c8c88"/><stop offset="1" stop-color="#006580"/></linearGradient><linearGradient id="New_Gradient_Swatch_38-2" x1="-5584.18068" y1="1192.94917" x2="-5673.73205" y2="1203.036" xlink:href="#New_Gradient_Swatch_38"/><linearGradient id="New_Gradient_Swatch_38-3" x1="-5633.4204" y1="1167.49425" x2="-5674.583" y2="1207.33754" xlink:href="#New_Gradient_Swatch_38"/><linearGradient id="New_Gradient_Swatch_38-4" x1="-5661.04328" y1="1168.86743" x2="-5680.1409" y2="1197.14183" xlink:href="#New_Gradient_Swatch_38"/><linearGradient id="New_Gradient_Swatch_38-5" x1="-5608.34041" y1="1179.01287" x2="-5681.94879" y2="1209.26289" xlink:href="#New_Gradient_Swatch_38"/><linearGradient id="New_Gradient_Swatch_38-6" x1="-5622.915" y1="1209.36081" x2="-5675.69054" y2="1202.07276" xlink:href="#New_Gradient_Swatch_38"/><linearGradient id="linear-gradient-4" x1="-5785.85074" y1="596.99482" x2="-5718.63798" y2="596.99482" xlink:href="#linear-gradient-3"/><linearGradient id="New_Gradient_Swatch_38-7" x1="4362.82244" y1="-4166.35492" x2="4316.83818" y2="-4136.31186" gradientTransform="matrix(-0.638, 0.77004, 0.77004, 0.638, 7185.37297, -325.20815)" xlink:href="#New_Gradient_Swatch_38"/><linearGradient id="New_Gradient_Swatch_38-8" x1="4393.86765" y1="-4148.63687" x2="4321.53869" y2="-4140.48993" gradientTransform="matrix(-0.638, 0.77004, 0.77004, 0.638, 7185.37297, -325.20815)" xlink:href="#New_Gradient_Swatch_38"/><linearGradient id="New_Gradient_Swatch_38-9" x1="4354.09766" y1="-4169.19634" x2="4320.85139" y2="-4137.01566" gradientTransform="matrix(-0.638, 0.77004, 0.77004, 0.638, 7185.37297, -325.20815)" xlink:href="#New_Gradient_Swatch_38"/><linearGradient id="New_Gradient_Swatch_38-10" x1="4331.78717" y1="-4168.08724" x2="4316.36238" y2="-4145.25054" gradientTransform="matrix(-0.638, 0.77004, 0.77004, 0.638, 7185.37297, -325.20815)" xlink:href="#New_Gradient_Swatch_38"/><linearGradient id="New_Gradient_Swatch_38-11" x1="4374.35429" y1="-4159.89297" x2="4314.90218" y2="-4135.46059" gradientTransform="matrix(-0.638, 0.77004, 0.77004, 0.638, 7185.37297, -325.20815)" xlink:href="#New_Gradient_Swatch_38"/><linearGradient id="New_Gradient_Swatch_38-12" x1="4362.56856" y1="-4135.27936" x2="4319.94274" y2="-4141.16578" gradientTransform="matrix(-0.638, 0.77004, 0.77004, 0.638, 7185.37297, -325.20815)" xlink:href="#New_Gradient_Swatch_38"/><linearGradient id="linear-gradient-5" x1="689.57909" y1="836.32719" x2="867.0472" y2="838.58177" gradientTransform="matrix(1.00517, 0.05119, -0.56498, 0.36616, 674.26577, 217.84624)" xlink:href="#linear-gradient"/><linearGradient id="linear-gradient-6" x1="59.68134" y1="1008.2256" x2="91.7803" y2="1005.55069" gradientTransform="matrix(-0.82608, 0.40024, 0.11958, 1.41112, 1120.06587, -1013.0767)" xlink:href="#linear-gradient-2"/><linearGradient id="linear-gradient-7" x1="939.05223" y1="137.4038" x2="1060.95282" y2="137.4038" gradientTransform="matrix(0.78911, 0.61425, -0.61425, 0.78911, 534.11957, -414.6967)" xlink:href="#linear-gradient-3"/><linearGradient id="New_Gradient_Swatch_38-13" x1="1013.9311" y1="283.43476" x2="946.61974" y2="327.41151" gradientTransform="translate(700.79059 -580.6699) rotate(41.82021)" xlink:href="#New_Gradient_Swatch_38"/><linearGradient id="New_Gradient_Swatch_38-14" x1="1059.37479" y1="309.37027" x2="953.50031" y2="321.29569" gradientTransform="translate(700.79059 -580.6699) rotate(41.82021)" xlink:href="#New_Gradient_Swatch_38"/><linearGradient id="New_Gradient_Swatch_38-15" x1="1001.15983" y1="279.27551" x2="952.49425" y2="326.3813" gradientTransform="translate(700.79059 -580.6699) rotate(41.82021)" xlink:href="#New_Gradient_Swatch_38"/><linearGradient id="New_Gradient_Swatch_38-16" x1="968.50195" y1="280.89899" x2="945.92328" y2="314.32715" gradientTransform="translate(700.79059 -580.6699) rotate(41.82021)" xlink:href="#New_Gradient_Swatch_38"/><linearGradient id="New_Gradient_Swatch_38-17" x1="1030.81131" y1="292.8937" x2="943.78584" y2="328.65759" gradientTransform="translate(700.79059 -580.6699) rotate(41.82021)" xlink:href="#New_Gradient_Swatch_38"/><linearGradient id="New_Gradient_Swatch_38-18" x1="1013.58011" y1="328.77337" x2="951.18482" y2="320.15688" gradientTransform="translate(700.79059 -580.6699) rotate(41.82021)" xlink:href="#New_Gradient_Swatch_38"/><linearGradient id="linear-gradient-8" x1="872.93095" y1="174.0717" x2="952.39502" y2="174.0717" gradientTransform="matrix(0.78911, 0.61425, -0.61425, 0.78911, 534.11957, -414.6967)" xlink:href="#linear-gradient-3"/><linearGradient id="New_Gradient_Swatch_38-19" x1="-41.90253" y1="847.78134" x2="-96.26865" y2="883.30054" gradientTransform="matrix(-0.96843, 0.24929, 0.24929, 0.96843, 872.59103, -542.63088)" xlink:href="#New_Gradient_Swatch_38"/><linearGradient id="New_Gradient_Swatch_38-20" x1="-5.1985" y1="868.72897" x2="-90.71135" y2="878.36091" gradientTransform="matrix(-0.96843, 0.24929, 0.24929, 0.96843, 872.59103, -542.63088)" xlink:href="#New_Gradient_Swatch_38"/><linearGradient id="New_Gradient_Swatch_38-21" x1="-52.21764" y1="844.42199" x2="-91.52392" y2="882.46846" gradientTransform="matrix(-0.96843, 0.24929, 0.24929, 0.96843, 872.59103, -542.63088)" xlink:href="#New_Gradient_Swatch_38"/><linearGradient id="New_Gradient_Swatch_38-22" x1="-78.5948" y1="845.73325" x2="-96.83117" y2="872.73255" gradientTransform="matrix(-0.96843, 0.24929, 0.24929, 0.96843, 872.59103, -542.63088)" xlink:href="#New_Gradient_Swatch_38"/><linearGradient id="New_Gradient_Swatch_38-23" x1="-28.26869" y1="855.42115" x2="-98.55754" y2="884.30698" gradientTransform="matrix(-0.96843, 0.24929, 0.24929, 0.96843, 872.59103, -542.63088)" xlink:href="#New_Gradient_Swatch_38"/><linearGradient id="New_Gradient_Swatch_38-24" x1="-42.18601" y1="884.40049" x2="-92.58152" y2="877.44111" gradientTransform="matrix(-0.96843, 0.24929, 0.24929, 0.96843, 872.59103, -542.63088)" xlink:href="#New_Gradient_Swatch_38"/><linearGradient id="linear-gradient-9" x1="743.0178" y1="931.32164" x2="1148.90896" y2="936.47816" gradientTransform="matrix(1.00633, 0.01651, -0.55203, 0.38541, 245.62425, 232.54804)" xlink:href="#linear-gradient"/><linearGradient id="linear-gradient-10" x1="402.36693" y1="1133.51575" x2="466.76357" y2="1128.14936" gradientTransform="matrix(-0.79437, 0.34474, 0.22202, 1.0976, 1200.97982, -1009.47897)" xlink:href="#linear-gradient-2"/><linearGradient id="linear-gradient-11" x1="775.38855" y1="100.07267" x2="1024.7566" y2="100.07267" gradientTransform="matrix(-0.99488, 0.10105, 0.10105, 0.99488, 1886.39329, -98.99417)" xlink:href="#linear-gradient-3"/><linearGradient id="New_Gradient_Swatch_38-25" x1="940.00309" y1="234.24144" x2="798.29027" y2="326.82715" gradientTransform="matrix(-0.98564, 0.16887, 0.16887, 0.98564, 1833.39172, -328.16042)" xlink:href="#New_Gradient_Swatch_38"/><linearGradient id="New_Gradient_Swatch_38-26" x1="1026.33839" y1="288.03481" x2="809.76383" y2="312.4292" gradientTransform="matrix(-0.98564, 0.16887, 0.16887, 0.98564, 1833.39172, -328.16042)" xlink:href="#New_Gradient_Swatch_38"/><linearGradient id="New_Gradient_Swatch_38-27" x1="912.72184" y1="223.8546" x2="809.6373" y2="323.63515" gradientTransform="matrix(-0.98564, 0.16887, 0.16887, 0.98564, 1833.39172, -328.16042)" xlink:href="#New_Gradient_Swatch_38"/><linearGradient id="New_Gradient_Swatch_38-28" x1="846.57567" y1="217.37692" x2="794.77195" y2="294.07332" gradientTransform="matrix(-0.98564, 0.16887, 0.16887, 0.98564, 1833.39172, -328.16042)" xlink:href="#New_Gradient_Swatch_38"/><linearGradient id="New_Gradient_Swatch_38-29" x1="986.95513" y1="248.2864" x2="791.70815" y2="328.52489" gradientTransform="matrix(-0.98564, 0.16887, 0.16887, 0.98564, 1833.39172, -328.16042)" xlink:href="#New_Gradient_Swatch_38"/><linearGradient id="New_Gradient_Swatch_38-30" x1="949.11749" y1="327.96751" x2="808.60566" y2="308.56349" gradientTransform="matrix(-0.98564, 0.16887, 0.16887, 0.98564, 1833.39172, -328.16042)" xlink:href="#New_Gradient_Swatch_38"/><linearGradient id="linear-gradient-12" x1="627.04139" y1="182.14109" x2="805.32393" y2="182.14109" gradientTransform="matrix(-0.99488, 0.10105, 0.10105, 0.99488, 1886.39329, -98.99417)" xlink:href="#linear-gradient-3"/><linearGradient id="New_Gradient_Swatch_38-31" x1="107.3538" y1="671.63477" x2="-14.61995" y2="751.32429" gradientTransform="matrix(0.68793, 0.72577, -0.72577, 0.68793, 1667.63965, -387.22486)" xlink:href="#New_Gradient_Swatch_38"/><linearGradient id="New_Gradient_Swatch_38-32" x1="189.70154" y1="718.63206" x2="-2.15179" y2="740.24192" gradientTransform="matrix(0.68793, 0.72577, -0.72577, 0.68793, 1667.63965, -387.22486)" xlink:href="#New_Gradient_Swatch_38"/><linearGradient id="New_Gradient_Swatch_38-33" x1="84.21121" y1="664.09788" x2="-3.97486" y2="749.45746" gradientTransform="matrix(0.68793, 0.72577, -0.72577, 0.68793, 1667.63965, -387.22486)" xlink:href="#New_Gradient_Swatch_38"/><linearGradient id="New_Gradient_Swatch_38-34" x1="25.03242" y1="667.03976" x2="-15.882" y2="727.61435" gradientTransform="matrix(0.68793, 0.72577, -0.72577, 0.68793, 1667.63965, -387.22486)" xlink:href="#New_Gradient_Swatch_38"/><linearGradient id="New_Gradient_Swatch_38-35" x1="137.94214" y1="688.77516" x2="-19.75521" y2="753.58229" gradientTransform="matrix(0.68793, 0.72577, -0.72577, 0.68793, 1667.63965, -387.22486)" xlink:href="#New_Gradient_Swatch_38"/><linearGradient id="New_Gradient_Swatch_38-36" x1="108.92611" y1="754.09705" x2="-5.80362" y2="738.25342" gradientTransform="matrix(0.68793, 0.72577, -0.72577, 0.68793, 1667.63965, -387.22486)" xlink:href="#New_Gradient_Swatch_38"/><linearGradient id="linear-gradient-13" x1="-134.82449" y1="931.49587" x2="223.78106" y2="936.05165" gradientTransform="matrix(1.00538, -0.04693, -0.52665, 0.41943, 228.4005, 237.71935)" xlink:href="#linear-gradient"/><linearGradient id="linear-gradient-14" x1="-432.78726" y1="1042.87096" x2="-364.51714" y2="1037.18179" gradientTransform="matrix(0.8169, 0.21645, -0.13488, 0.9729, 633.92153, -542.75607)" xlink:href="#linear-gradient-2"/><linearGradient id="linear-gradient-15" x1="129.03702" y1="106.8283" x2="333.55895" y2="106.8283" gradientTransform="matrix(1, 0, 0, 1, 0, 0)" xlink:href="#linear-gradient-3"/><linearGradient id="New_Gradient_Swatch_38-37" x1="263.92339" y1="285.61102" x2="142.25443" y2="365.10141" gradientTransform="translate(29.5742 -233.34888) rotate(3.92306)" xlink:href="#New_Gradient_Swatch_38"/><linearGradient id="New_Gradient_Swatch_38-38" x1="335.31246" y1="335.76396" x2="157.66335" y2="355.77389" gradientTransform="translate(29.5742 -233.34888) rotate(3.92306)" xlink:href="#New_Gradient_Swatch_38"/><linearGradient id="New_Gradient_Swatch_38-39" x1="234.26281" y1="285.29516" x2="151.63095" y2="365.27856" gradientTransform="translate(29.5742 -233.34888) rotate(3.92306)" xlink:href="#New_Gradient_Swatch_38"/><linearGradient id="New_Gradient_Swatch_38-40" x1="185.82046" y1="273.66319" x2="140.8828" y2="340.19427" gradientTransform="translate(29.5742 -233.34888) rotate(3.92306)" xlink:href="#New_Gradient_Swatch_38"/><linearGradient id="New_Gradient_Swatch_38-41" x1="290.15786" y1="305.06954" x2="142.21355" y2="365.86857" gradientTransform="translate(29.5742 -233.34888) rotate(3.92306)" xlink:href="#New_Gradient_Swatch_38"/><linearGradient id="New_Gradient_Swatch_38-42" x1="259.96711" y1="369.21152" x2="152.99135" y2="354.43868" gradientTransform="translate(29.5742 -233.34888) rotate(3.92306)" xlink:href="#New_Gradient_Swatch_38"/><linearGradient id="linear-gradient-16" x1="18.1003" y1="175.48417" x2="151.42325" y2="175.48417" gradientTransform="matrix(1, 0, 0, 1, 0, 0)" xlink:href="#linear-gradient-3"/><linearGradient id="New_Gradient_Swatch_38-43" x1="474.59828" y1="177.25587" x2="383.60822" y2="236.70271" gradientTransform="matrix(-0.61108, 0.79157, 0.79157, 0.61108, 188.50977, -308.85944)" xlink:href="#New_Gradient_Swatch_38"/><linearGradient id="New_Gradient_Swatch_38-44" x1="547.36334" y1="214.13937" x2="389.27861" y2="231.94561" gradientTransform="matrix(-0.61108, 0.79157, 0.79157, 0.61108, 188.50977, -308.85944)" xlink:href="#New_Gradient_Swatch_38"/><linearGradient id="New_Gradient_Swatch_38-45" x1="456.40989" y1="171.59192" x2="390.96715" y2="234.93715" gradientTransform="matrix(-0.61108, 0.79157, 0.79157, 0.61108, 188.50977, -308.85944)" xlink:href="#New_Gradient_Swatch_38"/><linearGradient id="New_Gradient_Swatch_38-46" x1="409.19997" y1="170.19215" x2="378.31143" y2="215.92323" gradientTransform="matrix(-0.61108, 0.79157, 0.79157, 0.61108, 188.50977, -308.85944)" xlink:href="#New_Gradient_Swatch_38"/><linearGradient id="New_Gradient_Swatch_38-47" x1="500.70435" y1="190.40967" x2="376.1437" y2="241.59898" gradientTransform="matrix(-0.61108, 0.79157, 0.79157, 0.61108, 188.50977, -308.85944)" xlink:href="#New_Gradient_Swatch_38"/><linearGradient id="New_Gradient_Swatch_38-48" x1="485.7219" y1="241.82729" x2="386.45659" y2="228.11923" gradientTransform="matrix(-0.61108, 0.79157, 0.79157, 0.61108, 188.50977, -308.85944)" xlink:href="#New_Gradient_Swatch_38"/><linearGradient id="New_Gradient_Swatch_38-49" x1="422.47705" y1="86.40227" x2="331.90127" y2="220.50149" gradientTransform="matrix(-0.55549, 0.83152, 0.83152, 0.55549, 153.39695, -86.2075)" xlink:href="#New_Gradient_Swatch_38"/><linearGradient id="linear-gradient-17" x1="184.78023" y1="919.74821" x2="324.27721" y2="908.12346" gradientTransform="translate(217.14017 -130.46951) rotate(14.5713)" xlink:href="#linear-gradient-2"/><linearGradient id="linear-gradient-18" x1="-152.86845" y1="454.27739" x2="226.76081" y2="454.27739" gradientTransform="matrix(1, 0, 0, 1, 0, 0)" xlink:href="#linear-gradient-3"/><linearGradient id="New_Gradient_Swatch_38-50" x1="604.71902" y1="96.57464" x2="334.69518" y2="272.99021" gradientTransform="matrix(-0.55549, 0.83152, 0.83152, 0.55549, 153.39695, -86.2075)" xlink:href="#New_Gradient_Swatch_38"/><linearGradient id="New_Gradient_Swatch_38-51" x1="787.01933" y1="200.61661" x2="362.29701" y2="248.45621" gradientTransform="matrix(-0.55549, 0.83152, 0.83152, 0.55549, 153.39695, -86.2075)" xlink:href="#New_Gradient_Swatch_38"/><linearGradient id="New_Gradient_Swatch_38-52" x1="553.48626" y1="79.88956" x2="358.26114" y2="268.85747" gradientTransform="matrix(-0.55549, 0.83152, 0.83152, 0.55549, 153.39695, -86.2075)" xlink:href="#New_Gradient_Swatch_38"/><linearGradient id="New_Gradient_Swatch_38-54" x1="672.43508" y1="134.51981" x2="323.32681" y2="277.98896" gradientTransform="matrix(-0.55549, 0.83152, 0.83152, 0.55549, 153.39695, -86.2075)" xlink:href="#New_Gradient_Swatch_38"/><linearGradient id="New_Gradient_Swatch_38-55" x1="737.39107" y1="296.96922" x2="386.03874" y2="248.44913" gradientTransform="matrix(-0.55549, 0.83152, 0.83152, 0.55549, 153.39695, -86.2075)" xlink:href="#New_Gradient_Swatch_38"/><linearGradient id="linear-gradient-19" x1="150.54875" y1="238.55792" x2="771.47479" y2="238.55792" gradientTransform="matrix(1, 0, 0, 1, 0, 0)" xlink:href="#linear-gradient-3"/><linearGradient id="New_Gradient_Swatch_38-56" x1="565.75188" y1="137.41861" x2="222.52468" y2="361.66038" gradientTransform="matrix(1, 0, 0, 1, 0, 0)" xlink:href="#New_Gradient_Swatch_38"/><linearGradient id="New_Gradient_Swatch_38-57" x1="798.67472" y1="269.53104" x2="257.79116" y2="330.45474" gradientTransform="matrix(1, 0, 0, 1, 0, 0)" xlink:href="#New_Gradient_Swatch_38"/><linearGradient id="New_Gradient_Swatch_38-58" x1="500.62994" y1="116.21021" x2="252.47936" y2="356.40724" gradientTransform="matrix(1, 0, 0, 1, 0, 0)" xlink:href="#New_Gradient_Swatch_38"/><linearGradient id="New_Gradient_Swatch_38-59" x1="334.10418" y1="124.48851" x2="218.97333" y2="294.94198" gradientTransform="matrix(1, 0, 0, 1, 0, 0)" xlink:href="#New_Gradient_Swatch_38"/><linearGradient id="New_Gradient_Swatch_38-60" x1="651.82574" y1="185.65069" x2="208.07434" y2="368.01428" gradientTransform="matrix(1, 0, 0, 1, 0, 0)" xlink:href="#New_Gradient_Swatch_38"/><linearGradient id="New_Gradient_Swatch_38-61" x1="563.96216" y1="368.60463" x2="245.80248" y2="324.6683" gradientTransform="matrix(1, 0, 0, 1, 0, 0)" xlink:href="#New_Gradient_Swatch_38"/><linearGradient id="New_Gradient_Swatch_38-62" x1="1152.07594" y1="1033.98935" x2="1054.17344" y2="1097.95231" gradientTransform="matrix(-0.62115, -0.78369, 0.72032, -0.7011, 989.65843, 2201.88844)" xlink:href="#New_Gradient_Swatch_38"/><linearGradient id="New_Gradient_Swatch_38-63" x1="1214.45275" y1="1067.49899" x2="1060.46125" y2="1084.84419" gradientTransform="matrix(-0.62115, -0.78369, 0.72032, -0.7011, 989.65843, 2201.88844)" xlink:href="#New_Gradient_Swatch_38"/><linearGradient id="New_Gradient_Swatch_38-64" x1="1181.26726" y1="984.48825" x2="1110.48453" y2="1053.00231" gradientTransform="matrix(-0.62115, -0.78369, 0.72032, -0.7011, 989.65843, 2201.88844)" xlink:href="#New_Gradient_Swatch_38"/><linearGradient id="New_Gradient_Swatch_38-65" x1="1082.28072" y1="1026.08832" x2="1049.44067" y2="1074.70865" gradientTransform="matrix(-0.62115, -0.78369, 0.72032, -0.7011, 989.65843, 2201.88844)" xlink:href="#New_Gradient_Swatch_38"/><linearGradient id="New_Gradient_Swatch_38-66" x1="1178.24029" y1="1044.08946" x2="1047.35978" y2="1097.87597" gradientTransform="matrix(-0.62115, -0.78369, 0.72032, -0.7011, 989.65843, 2201.88844)" xlink:href="#New_Gradient_Swatch_38"/><linearGradient id="New_Gradient_Swatch_38-67" x1="1147.84566" y1="1095.72026" x2="1057.09345" y2="1083.18781" gradientTransform="matrix(-0.62115, -0.78369, 0.72032, -0.7011, 989.65843, 2201.88844)" xlink:href="#New_Gradient_Swatch_38"/><linearGradient id="New_Gradient_Swatch_38-68" x1="-2998.30399" y1="5225.92142" x2="-3142.15178" y2="5319.90198" gradientTransform="matrix(0.71471, -0.69942, -0.6265, -0.78607, 6686.68728, 2594.09297)" xlink:href="#New_Gradient_Swatch_38"/><linearGradient id="New_Gradient_Swatch_38-69" x1="-2929.20061" y1="5243.41788" x2="-3139.56187" y2="5267.11242" gradientTransform="matrix(0.71471, -0.69942, -0.6265, -0.78607, 6686.68728, 2594.09297)" xlink:href="#New_Gradient_Swatch_38"/><linearGradient id="New_Gradient_Swatch_38-70" x1="-2941.13184" y1="5163.4681" x2="-3047.07099" y2="5266.01177" gradientTransform="matrix(0.71471, -0.69942, -0.6265, -0.78607, 6686.68728, 2594.09297)" xlink:href="#New_Gradient_Swatch_38"/><linearGradient id="New_Gradient_Swatch_38-71" x1="309.72402" y1="-170.49796" x2="261.47225" y2="-99.06028" gradientTransform="matrix(-0.99494, -0.10044, -0.20194, 0.9847, 1536.33768, 724.36314)" xlink:href="#New_Gradient_Swatch_38"/><linearGradient id="New_Gradient_Swatch_38-72" x1="-2969.44035" y1="5244.04258" x2="-3152.52702" y2="5319.28368" gradientTransform="matrix(0.71471, -0.69942, -0.6265, -0.78607, 6686.68728, 2594.09297)" xlink:href="#New_Gradient_Swatch_38"/><linearGradient id="New_Gradient_Swatch_38-73" x1="-3004.51954" y1="5316.62244" x2="-3137.86144" y2="5298.20856" gradientTransform="matrix(0.71471, -0.69942, -0.6265, -0.78607, 6686.68728, 2594.09297)" xlink:href="#New_Gradient_Swatch_38"/><linearGradient id="linear-gradient-20" x1="307.46174" y1="376.63945" x2="626.81308" y2="381.44527" gradientTransform="translate(215.01118 -180.22257) rotate(32.1976)" gradientUnits="userSpaceOnUse"><stop offset="0" stop-color="#f7d596" stop-opacity="0"/><stop offset="0.0869" stop-color="#f7d596" stop-opacity="0.03595"/><stop offset="0.2282" stop-color="#f7d596" stop-opacity="0.1338"/><stop offset="0.40627" stop-color="#f7d596" stop-opacity="0.2934"/><stop offset="0.61406" stop-color="#f7d596" stop-opacity="0.51484"/><stop offset="0.84404" stop-color="#f7d596" stop-opacity="0.79388"/><stop offset="1" stop-color="#f7d596"/></linearGradient><linearGradient id="linear-gradient-21" x1="229.45196" y1="419.13826" x2="452.93964" y2="325.71309" gradientTransform="matrix(1, 0, 0, 1, 0, 0)" xlink:href="#linear-gradient-20"/><linearGradient id="linear-gradient-22" x1="1311.54692" y1="958.17105" x2="1026.12518" y2="1109.52437" gradientTransform="translate(-59.49742 -513.39888) rotate(-1.92969)" xlink:href="#linear-gradient-20"/><linearGradient id="linear-gradient-23" x1="919.89038" y1="1010.09843" x2="700.04042" y2="1246.82485" gradientTransform="matrix(0.99604, 0.08887, -0.08887, 0.99604, 83.70287, -664.55912)" xlink:href="#linear-gradient-20"/><linearGradient id="linear-gradient-24" x1="25.57145" y1="202.22084" x2="219.95907" y2="287.98008" gradientTransform="matrix(-0.79199, -0.61054, -0.61054, 0.79199, 1007.52457, 383.81245)" xlink:href="#linear-gradient-20"/></defs><title>vl-palm-fg</title><g class="cls-2"><g id="Layer_1" data-name="Layer 1"><g class="cls-3"><g id="palm"><path class="cls-4" d="M1138.5066,547.91281l-19.33263-.10511-13.62492-1.13239-4.869.98942-5.99456-.68475-2.09911.8676-4.18864.09928,4.01035,1.43129-2.06316.55616-.50336,1.16939,1.18075,2.487,4.20792-.05473,7.046.46186,5.34559,1.28458,9.09226.32347,2.85452.89428,8.97324.12109,6.68985,1.35417,9.59053-.16222,12.5084.98816,3.56785-1.33191-8.43986-1.25948,3.16585-.61268s-1.12316-.02617-7.47979-1.13025a22.17432,22.17432,0,0,1-3.85026-1.08534c10.90253.39659,109.27076,6.05724,109.27076,6.05724s.81868-.91005.30688-1.37162a11.94453,11.94453,0,0,0-2.87588-.99453c-38.91013-1.56709-106.87415-4.6199-106.87415-4.6199l2.68629-1.02488-1.72479-1.17733,1.33456-.83657Z"/><path class="cls-5" d="M1248.4805,371.53931a493.37129,493.37129,0,0,1,5.80158,94.25571c-1.30554,35.09815-6.31207,87.35809-6.96428,92.44235-.04113.32065,2.46886,1.03488,7.64713,1.2842,5.61533.27036,7.80062-.46257,7.81056-.75109.12876-3.73853-1.47711-41.5109-.39733-91.50483a464.31358,464.31358,0,0,0-7.6191-92.729l-1.48441-.27792-2.4586-6.2418Z"/><polygon class="cls-6" points="1343.468 345.198 1319.242 344.613 1322.146 327.373 1304.476 330.688 1303.53 317.409 1291.743 322.132 1288.09 310.777 1262.451 327.94 1257.341 315.499 1240.385 342.712 1253.275 374.259 1301.017 383.197 1297.145 373.753 1334.471 373.323 1343.468 345.198"/><polygon class="cls-7" points="1343.468 345.198 1319.242 344.613 1322.146 327.373 1304.476 330.688 1303.53 317.409 1291.743 322.132 1288.09 310.777 1262.451 327.94 1257.341 315.499 1240.385 342.712 1253.275 374.259 1301.017 383.197 1297.145 373.753 1334.471 373.323 1343.468 345.198"/><polygon class="cls-8" points="1303.53 317.409 1240.385 342.712 1253.275 374.259 1306.515 359.303 1303.53 317.409"/><polygon class="cls-9" points="1343.468 345.198 1240.385 342.712 1253.275 374.259 1334.471 373.323 1343.468 345.198"/><polygon class="cls-10" points="1288.09 310.777 1240.385 342.712 1253.275 374.259 1302.897 356.8 1288.09 310.777"/><polygon class="cls-11" points="1257.341 315.499 1240.385 342.712 1253.275 374.259 1273.106 353.88 1257.341 315.499"/><polygon class="cls-12" points="1322.146 327.373 1240.385 342.712 1253.275 374.259 1315.474 366.99 1322.146 327.373"/><polygon class="cls-13" points="1286.425 347.605 1240.385 342.712 1253.275 374.259 1301.017 383.197 1286.425 347.605"/><polygon class="cls-14" points="1250.8 368.172 1240.384 342.694 1215.215 336.598 1219.307 346.661 1194.818 351.27 1199.135 359.883 1189.669 363.828 1196.635 372.018 1184.573 380.103 1196 388.399 1182.365 402.44 1203.462 413.565 1225.5 392.431 1228.333 400.332 1250.8 368.172"/><polygon class="cls-7" points="1250.8 368.172 1240.384 342.694 1215.215 336.598 1219.307 346.661 1194.818 351.27 1199.135 359.883 1189.669 363.828 1196.635 372.018 1184.573 380.103 1196 388.399 1182.365 402.44 1203.462 413.565 1225.5 392.431 1228.333 400.332 1250.8 368.172"/><polygon class="cls-15" points="1189.669 363.828 1240.384 342.694 1250.8 368.172 1211.647 389.668 1189.669 363.828"/><polygon class="cls-16" points="1182.365 402.44 1240.384 342.694 1250.8 368.172 1203.462 413.565 1182.365 402.44"/><polygon class="cls-17" points="1194.818 351.27 1240.384 342.694 1250.8 368.172 1212.317 386.178 1194.818 351.27"/><polygon class="cls-18" points="1215.215 336.598 1240.384 342.694 1250.8 368.172 1227.839 367.642 1215.215 336.598"/><polygon class="cls-19" points="1184.573 380.103 1240.384 342.694 1250.8 368.172 1210.831 399.167 1184.573 380.103"/><polygon class="cls-20" points="1217.59 370.37 1240.384 342.694 1250.8 368.172 1228.333 400.332 1217.59 370.37"/></g><g id="palm-2" data-name="palm"><path class="cls-21" d="M1032.4823,561.94642l-25.57689-.47559-18.04593-1.39469-6.42216.89727-7.94324-.80036-2.76026.82837-5.5392.01915,5.33266,1.50974-2.71867.51727-.64349,1.16108,1.60965,2.51243,5.56555.02581,9.33.59737,7.09622,1.38844,12.03424.498,3.79333.95,11.87291.29313,8.87585,1.48387,12.68408.02132,16.56615,1.22891,4.69434-1.26508-11.18911-1.42259,4.17633-.55273s-1.48632-.04772-9.91657-1.27482a37.58171,37.58171,0,0,1-5.11426-1.16033c14.43041.6059,129.66691,7.19981,129.66691,7.19981s8.621-.92023,7.93511-1.39213c-.64735-.44538-8.492-.97448-8.492-.97448-51.50373-2.31427-129.3559-5.76637-129.3559-5.76637l3.534-.97459-2.30425-1.2117,1.74944-.812Z"/><path class="cls-22" d="M1189.95819,298.40968a1067.79005,1067.79005,0,0,0-10.67541,138.5893c-.48977,51.42871,1.86091,127.847,2.25566,135.27309.0249.46834-2.53594,1.64516-7.75626,2.27692-5.66093.68509-7.82091-.278-7.81609-.70082.06253-5.47853,3.61749-60.98038,5.09936-134.27567,1.49443-73.91676,11.88039-132.13311,11.88039-132.13311l1.85262-7.5448Z"/><polygon class="cls-23" points="1289.456 342.175 1266.668 324.813 1281.406 310.32 1262.189 301.237 1270.494 287.868 1255.932 284.215 1260.311 270.809 1223.859 269.458 1227.596 254.002 1192.487 268.295 1182.946 307.439 1222.456 349.112 1225.299 337.385 1261.335 362.863 1289.456 342.175"/><polygon class="cls-7" points="1289.456 342.175 1266.668 324.813 1281.406 310.32 1262.189 301.237 1270.494 287.868 1255.932 284.215 1260.311 270.809 1223.859 269.458 1227.596 254.002 1192.487 268.295 1182.946 307.439 1222.456 349.112 1225.299 337.385 1261.335 362.863 1289.456 342.175"/><polygon class="cls-24" points="1270.494 287.868 1192.487 268.295 1182.946 307.439 1244.293 330.049 1270.494 287.868"/><polygon class="cls-25" points="1289.456 342.175 1192.487 268.295 1182.946 307.439 1261.335 362.863 1289.456 342.175"/><polygon class="cls-26" points="1260.311 270.809 1192.487 268.295 1182.946 307.439 1242.565 325.143 1260.311 270.809"/><polygon class="cls-27" points="1227.596 254.002 1192.487 268.295 1182.946 307.439 1216.067 301.684 1227.596 254.002"/><polygon class="cls-28" points="1281.406 310.32 1192.487 268.295 1182.946 307.439 1247.539 343.623 1281.406 310.32"/><polygon class="cls-29" points="1233.173 304.914 1192.487 268.295 1182.946 307.439 1222.456 349.112 1233.173 304.914"/><polygon class="cls-30" points="1184.798 299.895 1192.498 268.277 1172.629 244.983 1169.567 257.456 1142.923 244.883 1141.083 256.124 1129.283 253.334 1130.271 266.007 1113.116 265.382 1118.301 281.251 1095.508 285.237 1107.99 310.521 1143.299 305.636 1140.981 315.103 1184.798 299.895"/><polygon class="cls-7" points="1184.798 299.895 1192.498 268.277 1172.629 244.983 1169.567 257.456 1142.923 244.883 1141.083 256.124 1129.283 253.334 1130.271 266.007 1113.116 265.382 1118.301 281.251 1095.508 285.237 1107.99 310.521 1143.299 305.636 1140.981 315.103 1184.798 299.895"/><polygon class="cls-31" points="1129.283 253.334 1192.498 268.277 1184.798 299.895 1132.403 293.319 1129.283 253.334"/><polygon class="cls-32" points="1095.508 285.237 1192.498 268.277 1184.798 299.895 1107.99 310.521 1095.508 285.237"/><polygon class="cls-33" points="1142.923 244.883 1192.498 268.277 1184.798 299.895 1135.464 290.442 1142.923 244.883"/><polygon class="cls-34" points="1172.629 244.983 1192.498 268.277 1184.798 299.895 1163.183 283.462 1172.629 244.983"/><polygon class="cls-35" points="1113.116 265.382 1192.498 268.277 1184.798 299.895 1125.032 301.848 1113.116 265.382"/><polygon class="cls-36" points="1149.715 279.424 1192.498 268.277 1184.798 299.895 1140.981 315.103 1149.715 279.424"/></g><g id="palm-3" data-name="palm"><path class="cls-37" d="M787.81645,599.11966l-56.256.89354-39.77206-1.6976L677.74,600.77471l-17.52051-1.15709-6.00448,2.03007-12.17414.462,11.836,2.91428-5.93663,1.34309-1.32642,2.60092,3.7286,5.40049,12.23548-.36517,20.55327.60578,15.70329,2.514,26.48992.1824,8.41006,1.80055,26.11979-.25574,19.62228,2.5888,27.8822-.91468,36.50681,1.44538,10.22263-3.13661-24.70238-2.27874,9.138-1.53153s-3.27065.00778-21.894-2.05041a82.6536,82.6536,0,0,1-11.32949-2.1628c31.76508.23788,312.35913,6.86906,312.35913,6.86906s8.527-1.95441,6.98359-2.93968c-1.4567-.92991-8.27272-4.59636-8.27272-4.59636-113.38459-1.18255-311.68113-1.36556-311.68113-1.36556l7.69417-2.41013-5.15677-2.48873,3.78385-1.91736Z"/><path class="cls-38" d="M1109.0657,151.18894s-6.88421,97.38154,3.57715,226.40678c7.167,88.39472,23.24512,222.40763,25.30062,235.13168.12963.80247-5.29671,3.04309-16.64154,4.57463-12.30239,1.66081-15.87147-2.73889-15.92864-3.46564-.74078-9.41729-1.83974-105.0715-10.33539-231.11708-6.256-92.81684-2.32853-180.78875.67984-222.26274.05718-.78841.17049-2.31454.17049-2.31454l5.47342-16.54838,3.65222,4.54879Z"/><polygon class="cls-39" points="876.092 95.242 916.054 91.353 905.32 46.237 957.241 52.429 963.864 20.164 1003.777 33.142 1005.144 -4.696 1064.572 33.701 1076.684 -2.486 1124.42 72.369 1095.888 158.142 970.454 190.414 975.834 164.209 914.608 167.304 876.092 95.242"/><polygon class="cls-7" points="876.092 95.242 916.054 91.353 905.32 46.237 957.241 52.429 963.864 20.164 1003.777 33.142 1005.144 -4.696 1064.572 33.701 1076.684 -2.486 1124.42 72.369 1095.888 158.142 970.454 190.414 975.834 164.209 914.608 167.304 876.092 95.242"/><polygon class="cls-40" points="963.864 20.164 1124.42 72.369 1095.888 158.142 942.171 125.843 963.864 20.164"/><polygon class="cls-41" points="876.092 95.242 1124.42 72.369 1095.888 158.142 914.608 167.304 876.092 95.242"/><polygon class="cls-42" points="1005.144 -4.696 1124.42 72.369 1095.888 158.142 999.752 144.542 1005.144 -4.696"/><polygon class="cls-43" points="1076.684 -2.486 1124.42 72.369 1095.888 158.142 1039.798 107.717 1076.684 -2.486"/><polygon class="cls-44" points="905.32 46.237 1124.42 72.369 1095.888 158.142 929.985 149.908 905.32 46.237"/><polygon class="cls-45" points="989.871 95.829 1124.42 72.369 1095.888 158.142 970.454 190.414 989.871 95.829"/><polygon class="cls-46" points="1101.362 141.594 1124.421 72.321 1189.953 51.735 1180.904 79.092 1246.533 86.959 1236.63 110.517 1262.383 119.284 1245.395 142.192 1278.747 161.455 1249.973 185.434 1288.543 220.183 1234.677 253.358 1173.392 201.98 1165.355 226.221 1101.362 141.594"/><polygon class="cls-7" points="1101.362 141.594 1124.421 72.321 1189.953 51.735 1180.904 79.092 1246.533 86.959 1236.63 110.517 1262.383 119.284 1245.395 142.192 1278.747 161.455 1249.973 185.434 1288.543 220.183 1234.677 253.358 1173.392 201.98 1165.355 226.221 1101.362 141.594"/><polygon class="cls-47" points="1262.383 119.284 1124.421 72.321 1101.362 141.594 1208.785 191.56 1262.383 119.284"/><polygon class="cls-48" points="1288.543 220.183 1124.421 72.321 1101.362 141.594 1234.677 253.358 1288.543 220.183"/><polygon class="cls-49" points="1246.533 86.959 1124.421 72.321 1101.362 141.594 1206.396 182.443 1246.533 86.959"/><polygon class="cls-50" points="1189.954 51.736 1124.421 72.321 1101.362 141.594 1162.035 136.131 1189.954 51.736"/><polygon class="cls-51" points="1278.747 161.455 1124.421 72.321 1101.362 141.594 1212.627 216.557 1278.747 161.455"/><polygon class="cls-52" points="1192.446 144.511 1124.421 72.321 1101.362 141.594 1165.355 226.221 1192.446 144.511"/></g><g id="palm-4" data-name="palm"><path class="cls-53" d="M-124.6044,611.21864l-50.5898,5.16215-35.886,1.15189-12.5183,3.68667-15.8297.0686-5.30011,2.62552-10.93411,1.40516,10.80358,2.24038-5.27441,1.88381-1.06,2.888,3.63406,5.51215,10.99431-1.30593,18.53108-.88638L-203.77,637.1728l23.85284-1.784,7.66254,1.3022,23.49713-2.22617,17.79518,1.30952,25.04956-3.06444,32.934-1.17833,9.03989-4.12723-22.35178-.59741,8.14623-2.3251s-2.94349.25276-19.81224-.56246a62.87393,62.87393,0,0,1-10.309-1.47244c28.60385-2.11875,281.25568-17.72654,281.25568-17.72654s7.82543-.98356,6.38548-1.9247c-1.359-.88825-7.7404-1.53174-7.7404-1.53174-102.11781,7.20526-280.55545,19.04921-280.55545,19.04921l6.80143-3.1593-4.76968-2.28323,3.30714-2.3387Z"/><path class="cls-54" d="M147.056,163.93116s18.22051,100.98063,17.94544,222.12434c-.18845,82.9951-6.54046,206.82139-7.4858,218.88165-.05962.7606,4.96506,2.2429,15.2476,2.40993,11.15042.18114,15.43246-1.72776,15.43244-2.40993-.00034-8.8395-5.76636-97.913-7.04388-216.068-1.28836-119.15682-23.40282-228.771-23.40282-228.771l-6.30376-4.67573Z"/><polygon class="cls-55" points="333.559 93.986 285.494 94.579 290.071 53.626 255.269 62.894 252.486 31.613 221.973 47.653 210.629 26.473 171.77 59.829 160.789 30.864 129.037 96.51 156.746 169.963 252.002 187.183 243.681 165.196 317.648 161.14 333.559 93.986"/><polygon class="cls-7" points="333.559 93.986 285.494 94.579 290.071 53.626 255.269 62.894 252.486 31.613 221.973 47.653 210.629 26.473 171.77 59.829 160.789 30.864 129.037 96.51 156.746 169.963 252.002 187.183 243.681 165.196 317.648 161.14 333.559 93.986"/><polygon class="cls-56" points="252.486 31.613 129.037 96.51 156.746 169.963 261.267 130.308 252.486 31.613"/><polygon class="cls-57" points="333.559 93.986 129.037 96.51 156.746 169.963 317.648 161.14 333.559 93.986"/><polygon class="cls-58" points="210.629 26.473 129.037 96.51 156.746 169.963 261.423 121.198 210.629 26.473"/><polygon class="cls-59" points="160.789 30.864 129.037 96.51 156.746 169.963 194.666 120.222 160.789 30.864"/><polygon class="cls-60" points="290.071 53.626 129.037 96.51 156.746 169.963 279.554 147.731 290.071 53.626"/><polygon class="cls-61" points="220.642 104.316 129.037 96.51 156.746 169.963 252.002 187.183 220.642 104.316"/><polygon class="cls-62" points="151.423 155.789 129.033 96.468 78.722 84.122 87.522 107.553 39.289 120.434 48.437 140.422 29.939 150.51 44.309 169.284 20.951 189.359 44.171 208.022 18.1 242.293 60.683 266.847 102.396 215.793 109.085 233.57 151.423 155.789"/><polygon class="cls-7" points="151.423 155.789 129.033 96.468 78.722 84.122 87.522 107.553 39.289 120.434 48.437 140.422 29.939 150.51 44.309 169.284 20.951 189.359 44.171 208.022 18.1 242.293 60.683 266.847 102.396 215.793 109.085 233.57 151.423 155.789"/><polygon class="cls-63" points="29.939 150.51 129.033 96.468 151.423 155.789 75.277 209.744 29.939 150.51"/><polygon class="cls-64" points="18.1 242.293 129.033 96.468 151.423 155.789 60.683 266.847 18.1 242.293"/><polygon class="cls-65" points="39.289 120.434 129.033 96.468 151.423 155.789 76.365 201.449 39.289 120.434"/><polygon class="cls-66" points="78.722 84.122 129.033 96.468 151.423 155.789 105.87 156.408 78.722 84.122"/><polygon class="cls-67" points="20.951 189.359 129.033 96.468 151.423 155.789 74.308 232.245 20.951 189.359"/><polygon class="cls-68" points="83.878 166.574 129.033 96.468 151.423 155.789 109.085 233.57 83.878 166.574"/></g><polygon class="cls-69" points="-0.14 225.949 150.549 246.367 226.761 388.898 92.33 399.66 -0.14 225.949"/><g id="palm2"><path class="cls-70" d="M215.57657,409.04275s37.99967,181.32509,16.73363,407.05188c-14.56929,154.64459-61.17,384.89426-65.74881,407.27891a4.28093,4.28093,0,0,0,1.15189,3.87963c3.03909,3.08544,12.02992,8.62053,38.474,14.04289,27.02737,5.542,37.13224,2.91317,40.32294,1.6096a2.18558,2.18558,0,0,0,1.36421-1.92765c.867-16.48659,10.674-197.80116,27.27-418.10594,12.0891-160.47824-10.70486-321.02652-23.96578-393.73977-.5083-2.78717-3.72351-1.46422-3.72351-1.46422l-11.69956-22.313-8.99478-16.45716Z"/><polygon class="cls-71" points="226.761 388.898 150.549 246.367 -0.14 225.948 29.834 282.257 -110.427 323.958 -80.012 371.66 -132.927 400.416 -87.296 444.05 -152.868 498.551 -81.118 540.116 -152.287 630.358 -22.349 682.606 53.372 616.485 76.147 659.201 226.761 388.898"/><polygon class="cls-7" points="226.761 388.898 150.549 246.367 -0.14 225.948 29.834 282.257 -110.427 323.958 -80.012 371.66 -132.927 400.416 -87.296 444.05 -152.868 498.551 -81.118 540.116 -152.287 630.358 -22.349 682.606 69.759 586.916 92.534 629.632 226.761 388.898"/><polygon class="cls-72" points="-132.927 400.416 150.549 246.367 226.761 388.898 11.043 538.084 -132.927 400.416"/><polygon class="cls-73" points="-152.287 630.358 150.549 246.367 226.761 388.898 -22.349 682.606 -152.287 630.358"/><polygon class="cls-74" points="-110.427 323.958 150.549 246.367 226.761 388.898 12.849 517.298 -110.427 323.958"/><polygon class="cls-75" points="-0.14 225.949 150.549 246.367 226.761 388.898 92.33 399.66 -0.14 225.949"/><polygon class="cls-76" points="-152.868 498.551 150.549 246.367 226.761 388.898 12.007 594.063 -152.868 498.551"/><polygon class="cls-77" points="29.107 429.316 150.549 246.367 226.761 388.898 51.162 705.185 29.107 429.316"/><polygon class="cls-78" points="771.475 197.432 624.672 209.029 631.402 103.843 527.573 135.095 513.599 55.629 445.877 91.333 416.9 25.425 273.787 144.229 235.436 72.79 150.549 246.367 247.455 427.668 539.285 451.691 510.119 397.274 735.759 371.416 771.475 197.432"/><polygon class="cls-7" points="771.475 197.432 624.672 209.029 631.402 103.843 527.498 134.668 513.599 55.629 445.843 91.254 416.9 25.425 273.787 144.229 235.436 72.79 150.619 246.477 247.455 427.668 539.285 451.691 510.218 397.458 735.759 371.416 771.475 197.432"/><polygon class="cls-79" points="513.599 55.629 150.619 246.477 247.455 427.668 557.451 305.003 513.599 55.629"/><polygon class="cls-80" points="771.475 197.432 150.619 246.477 247.455 427.668 735.759 371.416 771.475 197.432"/><polygon class="cls-81" points="416.9 25.425 150.619 246.477 247.455 427.668 534.207 292.235 416.9 25.425"/><polygon class="cls-82" points="235.436 72.79 150.619 246.477 247.455 427.668 353.75 293.181 235.436 72.79"/><polygon class="cls-83" points="631.402 103.843 150.619 246.477 247.455 427.668 615.938 345.548 631.402 103.843"/><polygon class="cls-84" points="429.735 247.297 150.619 246.477 247.455 427.668 539.285 451.691 429.735 247.297"/></g><polygon class="cls-85" points="1011.305 602.029 1114.83 645.003 1134.901 587.121 1055.362 542.684 1011.305 602.029"/><polygon class="cls-86" points="994.234 522.208 1114.087 650.943 1134.158 593.061 1036.504 495.529 994.234 522.208"/><polygon class="cls-87" points="961.244 622.786 1053.842 638.104 1073.913 580.222 995.28 543.205 961.244 622.786"/><polygon class="cls-88" points="1063.373 666.717 1114.087 650.943 1134.158 593.061 1087.693 596.195 1063.373 666.717"/><polygon class="cls-89" points="995.703 569.308 1114.087 650.943 1134.158 593.061 1029.171 508.789 995.703 569.308"/><polygon class="cls-90" points="1064.802 588.385 1114.087 650.943 1134.158 593.061 1087.388 523.021 1064.802 588.385"/><polygon class="cls-91" points="1275.542 625.359 1116.705 668.885 1098.136 580.807 1222.281 530.72 1275.542 625.359"/><polygon class="cls-92" points="1338.284 592.603 1116.69 677.68 1098.121 589.603 1262.454 462.388 1338.284 592.603"/><polygon class="cls-93" points="1344.681 664.859 1206.878 670.089 1188.309 582.012 1354.658 508.176 1344.681 664.859"/><polygon class="cls-94" points="1309.698 507.401 1348.533 582.82 1274.651 653.35 1233.201 594.448 1309.698 507.401"/><polygon class="cls-95" points="1295.334 585.199 1116.69 677.68 1098.121 589.603 1260.76 489.805 1295.334 585.199"/><polygon class="cls-96" points="1200.081 595.593 1116.69 677.68 1098.121 589.603 1179.228 496.145 1200.081 595.593"/><polygon class="cls-97" points="172.997 930.291 -391.172 519.589 530.041 -211.354 739.361 -89.138 631.402 103.843 172.997 930.291"/><polygon class="cls-98" points="702.83 948.503 449.196 1011.103 -217.635 -121.217 97.633 -184.502 235.436 72.79 273.787 144.229 702.83 948.503"/><polygon class="cls-99" points="1308.504 936.62 1823.764 927.234 1119.182 -181.99 753.158 -132.721 848.429 43.726 986.414 301.684 1002.702 336.418 1308.504 936.62"/><polygon class="cls-100" points="893.049 934.957 1405.587 988.688 842.023 -198.413 472.721 -194.3 585.399 86.092 718.7 454.518 739.137 510.767 893.049 934.957"/><polygon class="cls-101" points="587.009 1096.039 764.419 1195.829 1074.416 13.64 846.458 -167.839 587.009 1096.039"/></g></g></g></svg>